<svg width="148" height="85" viewBox="0 0 148 85" fill="none" xmlns="http://www.w3.org/2000/svg">
<path fill-rule="evenodd" clip-rule="evenodd" d="M131.913 3.03537C130.337 3.25364 129.028 4.22202 128.356 5.66844C128.135 6.14187 128.091 6.42931 128.091 7.44073C128.091 8.57204 128.115 8.69194 128.455 9.3406C128.906 10.1906 129.794 11.036 130.673 11.4434C131.252 11.7139 131.479 11.7523 132.492 11.7523C133.51 11.7523 133.733 11.7139 134.319 11.4403C135.134 11.0622 136.112 10.1138 136.491 9.33906C136.903 8.49211 136.963 6.78285 136.613 5.85597C135.923 4.02527 133.832 2.76945 131.913 3.03537ZM139.086 3.28438C137.874 3.84543 137.528 5.29646 138.374 6.25254C139.021 6.98574 139.84 7.16251 140.727 6.76133C141.696 6.32479 142.1 5.11047 141.6 4.13748C141.145 3.2521 139.995 2.86168 139.086 3.28438ZM54.9389 4.14516C53.6311 4.72312 53.3804 6.55074 54.4823 7.47147C55.8459 8.61201 57.8641 7.63594 57.8486 5.84675C57.8378 4.53866 56.208 3.58565 54.9389 4.14516ZM46.7423 4.53866C46.2857 4.62013 45.9436 4.9045 45.8043 5.32413C45.518 6.18491 45.9963 6.86278 46.9574 6.95347C47.4821 7.00419 47.5672 6.97652 47.8876 6.65988C48.177 6.3709 48.2404 6.21565 48.2404 5.78526C48.2404 4.94446 47.5765 4.3911 46.7423 4.53866ZM33.0822 5.78987C32.6612 6.08192 32.4507 6.68755 32.6086 7.16251C32.9475 8.18315 34.2352 8.29997 34.8218 7.35926C35.4718 6.31403 34.1037 5.07819 33.0822 5.78987ZM67.4057 6.10191C66.9058 6.3294 66.6427 6.67064 66.5731 7.18557C66.5204 7.57292 66.5622 7.69435 66.8625 8.02791C67.1813 8.38144 67.2726 8.41833 67.8499 8.41833C68.3622 8.41833 68.5448 8.36453 68.7816 8.14473C69.1624 7.79119 69.2552 7.33313 69.0509 6.84894C68.7337 6.10344 68.0697 5.80371 67.4057 6.10191ZM60.7181 7.44534C58.9537 7.88034 57.7929 9.2745 57.8037 10.9469C57.8115 12.3856 58.6797 13.6614 60.0711 14.2809C60.698 14.5606 60.8837 14.5914 61.6761 14.5453C62.7007 14.4868 63.3337 14.1886 64.007 13.4493C64.7375 12.6469 64.9758 12.006 64.9743 10.8316C64.9743 9.63419 64.8381 9.30217 64.0333 8.52593C63.1015 7.62518 61.7612 7.18864 60.7181 7.44534ZM80.0397 8.02022C79.8555 8.07556 79.5073 8.31074 79.2689 8.5413C78.1453 9.62958 78.6142 11.4234 80.1542 11.9276C81.0008 12.2042 82.0208 11.7908 82.5299 10.9623C82.7962 10.5288 82.8271 9.52813 82.5903 9.07314C82.1167 8.17239 81.0349 7.7251 80.0397 8.02022ZM50.7555 8.72114C49.8562 8.91943 49.2619 9.43897 48.8719 10.3689C48.4107 11.4603 48.9214 12.8345 50.0234 13.477C51.1052 14.1056 52.1345 13.9565 53.06 13.0343C53.5568 12.5409 53.6806 12.3303 53.8045 11.7769C53.9345 11.1928 53.9283 11.0314 53.7534 10.4796C53.3479 9.20072 52.0463 8.43831 50.7555 8.72114ZM38.9155 8.8272C37.5767 9.21917 36.8354 11.0253 37.4746 12.338C37.7717 12.9482 38.705 13.6076 39.4742 13.749C40.9863 14.0273 42.3328 12.8175 42.3328 11.1774C42.3328 9.39132 40.7402 8.2969 38.9155 8.8272ZM71.4158 8.92712C70.0353 9.40516 69.2521 10.3305 68.9024 11.8953C68.5789 13.3356 68.9086 14.3931 70.0245 15.4998C70.9097 16.379 71.682 16.6742 72.9651 16.6204C75.0978 16.5312 76.6316 15.0802 76.8081 12.9866C76.9566 11.2343 76.1286 9.854 74.4354 9.0301C73.6956 8.67042 72.2949 8.62277 71.4158 8.92712ZM136.769 11.2082C134.956 11.8522 133.854 13.4847 133.963 15.3707C134.138 18.3527 137.198 20.1788 139.916 18.923C140.769 18.5295 141.724 17.5273 142.039 16.6957C142.415 15.7073 142.349 14.2102 141.889 13.3048C141.44 12.4194 140.882 11.8937 139.925 11.4557C138.882 10.9792 137.681 10.8839 136.769 11.2082ZM33.1688 11.6755C32.8608 11.9491 32.7927 12.1028 32.7494 12.6254C32.703 13.1818 32.7308 13.2833 33.0017 13.5507C33.3577 13.9058 33.6796 13.9888 34.1919 13.8566C34.8961 13.6753 35.1066 12.9651 34.7336 12.0382C34.424 11.2697 33.791 11.1236 33.1688 11.6755ZM44.8912 11.8784C44.5894 12.1289 44.5337 12.255 44.5337 12.693C44.5337 12.9789 44.6219 13.3586 44.7302 13.54C45.3416 14.5683 46.9667 14.0472 46.9667 12.8237C46.9667 12.4517 46.8893 12.2857 46.572 11.9721C46.0613 11.4634 45.4282 11.428 44.8912 11.8784ZM27.5847 11.9752C26.4131 12.3979 25.9132 13.6061 26.4642 14.679C27.0647 15.8457 28.4901 16.17 29.4296 15.3522C30.061 14.7989 30.2189 14.4038 30.1849 13.4524C30.1709 13.042 29.6432 12.361 29.1386 12.1013C28.6449 11.8476 28.066 11.8 27.5847 11.9752ZM127.107 13.0481C126.24 13.3786 125.887 13.6138 125.333 14.224C124.595 15.0402 124.295 15.8718 124.301 17.0784C124.304 17.9131 124.352 18.1267 124.668 18.7677C125.09 19.6208 125.83 20.3263 126.76 20.7644C127.308 21.0226 127.551 21.0657 128.497 21.0657C129.46 21.0657 129.679 21.0257 130.237 20.7537C131.089 20.3386 131.783 19.6316 132.236 18.717C132.57 18.0422 132.608 17.8654 132.601 16.9862C132.595 16.1715 132.54 15.8887 132.275 15.3046C131.89 14.4592 131.113 13.6691 130.235 13.2326C129.413 12.8222 127.926 12.7345 127.107 13.0481ZM82.3195 13.5215C81.5797 13.7951 81.2005 14.0565 80.5922 14.7113C79.9298 15.4245 79.6822 16.1346 79.6822 17.329C79.6822 18.159 79.7301 18.4019 79.9963 18.9414C80.4746 19.9067 81.041 20.4893 81.9155 20.9166C82.6213 21.2624 82.7822 21.2947 83.7387 21.2916C84.6472 21.2886 84.8778 21.2455 85.4443 20.9688C86.2197 20.5923 86.8945 19.8744 87.382 18.906C87.6854 18.3035 87.7318 18.0868 87.7318 17.2721C87.7318 16.4544 87.6854 16.2392 87.3805 15.6335C86.9734 14.825 86.2723 14.1379 85.3963 13.6952C84.5621 13.271 83.2094 13.1941 82.3195 13.5215ZM50.093 14.1272C49.4585 14.2993 48.8038 14.8096 48.5097 15.363C48.1615 16.0178 48.1414 17.1599 48.4649 17.8685C48.7048 18.3926 49.395 18.9583 50.0605 19.1766C50.935 19.4625 52.2784 19.0306 52.8232 18.2881C53.3695 17.5442 53.4965 16.3667 53.1173 15.5398C52.8387 14.9311 52.0633 14.2809 51.4241 14.121C50.8406 13.9765 50.6533 13.9765 50.093 14.1272ZM58.152 15.4214C57.3766 15.7457 56.7033 16.3391 56.2514 17.0984C55.9743 17.5611 55.9418 17.7302 55.9418 18.7078C55.9418 19.7023 55.9712 19.856 56.2823 20.4124C57.2574 22.1601 59.4273 22.8257 61.2149 21.9249C61.7659 21.6467 62.5629 20.769 62.8694 20.1081C63.2579 19.2642 63.2207 18.0407 62.7812 17.1783C62.1466 15.9363 61.0802 15.2554 59.6486 15.1785C58.98 15.1432 58.7153 15.1862 58.152 15.4214ZM41.5466 15.672C40.8888 15.9978 40.5669 16.3683 40.3038 17.1061C39.9153 18.199 40.2202 19.3564 41.0529 19.9559C42.4071 20.9289 44.1607 20.5692 44.9345 19.1566C45.3694 18.3634 45.3803 17.7163 44.9686 16.9262C44.2257 15.4906 42.8962 15.0033 41.5466 15.672ZM34.1702 15.8964C33.2493 16.2099 32.6008 17.2859 32.7757 18.2067C32.9568 19.1781 34.2816 19.919 35.3171 19.63C36.5165 19.298 36.9762 18.116 36.3711 16.9201C35.9005 15.9886 35.0524 15.5936 34.1702 15.8964ZM65.1507 16.0593C64.4759 16.7771 64.6725 17.8255 65.5361 18.1052C66.457 18.4034 67.1751 17.8793 67.1751 16.9078C67.1751 16.4682 67.1194 16.3391 66.7975 16.0532C66.2651 15.5813 65.5995 15.5843 65.1507 16.0593ZM92.9337 15.9379C92.07 16.2146 91.437 17.0507 91.437 17.9208C91.437 19.484 93.3747 20.477 94.6996 19.5901C95.8697 18.8077 95.8774 17.0092 94.7151 16.2453C94.2291 15.9271 93.4103 15.7857 92.9337 15.9379ZM18.707 16.8371C17.9935 17.1107 17.3172 18.0822 17.3203 18.8307C17.3234 19.2995 17.7211 20.0374 18.1375 20.3432C19.1125 21.0611 20.7438 20.6384 21.2128 19.5455C21.513 18.8461 21.3753 17.9976 20.8707 17.4612C20.3399 16.8924 19.3277 16.6019 18.707 16.8371ZM69.7969 18.5387C68.3715 18.9322 67.5295 19.6377 67.1643 20.7383C66.6628 22.2569 66.9987 23.7633 68.0542 24.7425C70.1297 26.67 73.3613 25.8645 74.2389 23.2038C74.4958 22.4276 74.4215 21.267 74.0702 20.5246C73.3273 18.9568 71.4437 18.0806 69.7969 18.5387ZM23.5065 18.8184C23.1242 18.9721 22.5469 19.7053 22.4649 20.1419C22.2869 21.0795 22.8116 21.9895 23.7742 22.4122C24.3887 22.6812 24.9025 22.6028 25.5448 22.1401C26.3697 21.5468 26.6483 20.8075 26.3434 20.0097C26.1763 19.5685 25.6764 19.0582 25.226 18.8661C24.8174 18.6939 23.8841 18.6678 23.5065 18.8184ZM133.464 20.5923C132.465 20.9458 131.606 21.7174 131.083 22.7319C130.786 23.3083 130.755 23.4728 130.755 24.5718C130.755 25.7308 130.772 25.8092 131.156 26.5117C131.592 27.3125 132.309 27.9366 133.309 28.3869C133.767 28.5945 134.095 28.6483 134.925 28.6498C135.83 28.6529 136.053 28.6129 136.608 28.3408C137.469 27.9212 138.234 27.1711 138.642 26.3441C138.947 25.7277 138.978 25.5556 138.973 24.515C138.967 23.107 138.73 22.5321 137.768 21.5806C137.274 21.0934 136.952 20.8874 136.373 20.6891C135.511 20.3924 134.151 20.3479 133.464 20.5923ZM13.8937 20.9888C13.3349 21.2486 12.9681 21.6775 12.7855 22.2769C12.3754 23.6403 13.7497 24.9392 15.2139 24.5749C16.2384 24.3182 16.7384 23.7111 16.7384 22.7242C16.7384 21.307 15.2139 20.3755 13.8937 20.9888ZM35.5012 21.4807C34.407 21.9142 33.9628 23.3591 34.6175 24.3413C35.0153 24.9377 35.5198 25.1913 36.3107 25.1959C37.5195 25.2036 38.2794 24.4104 38.2794 23.1439C38.2794 22.5936 38.2299 22.4552 37.9048 22.0863C37.699 21.8542 37.3631 21.5929 37.1557 21.5068C36.7239 21.3285 35.9207 21.3162 35.5012 21.4807ZM28.9034 21.6175C28.6526 21.7036 28.3725 21.9403 28.1512 22.2539C27.4423 23.2576 27.7735 24.6272 28.8476 25.1483C30.1941 25.8 31.7867 24.8777 31.7929 23.4421C31.796 22.5782 31.2605 21.9034 30.3597 21.6375C29.6803 21.4361 29.442 21.4331 28.9034 21.6175ZM123.509 22.3046C121.828 23.0086 120.967 24.2045 120.881 25.9522C120.84 26.7545 120.878 27.0466 121.083 27.5938C121.416 28.4684 122.387 29.5137 123.266 29.9425C123.845 30.2238 124.053 30.2622 125.024 30.2622C125.985 30.2622 126.203 30.2238 126.763 29.9502C127.542 29.5705 128.353 28.7897 128.802 27.9858C129.105 27.4386 129.133 27.291 129.133 26.2365C129.133 25.1667 129.107 25.0299 128.754 24.3151C128.339 23.4774 127.816 22.964 126.849 22.4399C126.33 22.1586 126.084 22.1032 125.196 22.071C124.309 22.0402 124.06 22.074 123.509 22.3046ZM78.167 22.4752C76.4134 23.0977 75.2124 24.8931 75.3718 26.6531C75.4538 27.5554 76.0002 28.6898 76.6595 29.3261C78.6669 31.2644 82.0115 30.6972 83.3038 28.1994C83.7078 27.417 83.8006 25.9245 83.5035 24.9869C83.2357 24.1384 82.287 23.0901 81.397 22.6597C80.538 22.24 79.0646 22.157 78.167 22.4752ZM88.7734 22.3753C87.6776 22.7258 86.6082 23.6511 86.1315 24.6625C85.8668 25.222 85.8204 25.471 85.8204 26.3533C85.8204 27.2357 85.8668 27.4847 86.1299 28.0442C86.5401 28.9096 87.3371 29.6812 88.2719 30.1162C88.9235 30.419 89.1712 30.4713 89.993 30.4759C90.8582 30.4805 91.0253 30.4436 91.7233 30.0916C93.2649 29.3169 94.1006 27.9996 94.1006 26.3533C94.1006 25.1498 93.7911 24.3858 92.96 23.5497C92.0251 22.6074 91.403 22.3353 90.1044 22.3061C89.5318 22.2923 88.9328 22.323 88.7734 22.3753ZM18.2536 24.89C17.7057 25.1898 17.4333 25.7416 17.4333 26.5578C17.4333 27.809 17.9518 28.4853 18.9763 28.5699C19.7502 28.6344 20.425 28.3224 20.846 27.706C21.3985 26.899 21.1416 25.6048 20.3105 25.0176C19.7982 24.6564 18.7953 24.5934 18.2536 24.89ZM7.54341 25.036C7.15184 25.1529 6.59466 25.6478 6.36405 26.089C6.14892 26.4963 6.15511 27.3709 6.37334 27.7905C6.60704 28.2409 7.2478 28.7082 7.73997 28.7866C8.93016 28.9787 10.2983 27.6968 10.0878 26.5885C10.0012 26.1305 9.45483 25.4465 8.99206 25.2143C8.5618 24.9976 7.93343 24.9208 7.54341 25.036ZM24.2711 25.1667C23.7232 25.5371 23.2202 26.2811 23.149 26.8222C23.0128 27.8782 24.0157 28.825 25.2662 28.825C25.7894 28.825 25.941 28.7712 26.2955 28.4638C27.2055 27.6707 27.4067 26.6669 26.817 25.8584C26.3543 25.2236 26.0246 25.0284 25.2894 24.9561C24.7694 24.9039 24.61 24.9377 24.2711 25.1667ZM97.6789 26.9036C97.1883 27.2326 97.0041 27.8228 97.2425 28.3132C97.4375 28.7159 98.0875 29.1709 98.4667 29.1709C99.191 29.1709 99.7761 28.5268 99.7761 27.7306C99.7761 26.7714 98.5828 26.3011 97.6789 26.9036ZM12.0116 27.5631C11.5705 27.8321 11.1852 28.5791 11.1852 29.1709C11.1852 29.9717 11.781 30.8494 12.5069 31.123C13.2483 31.4028 14.5576 30.8263 14.9229 30.0609C15.3887 29.0848 15.0003 28.3255 13.7017 27.6814C12.8753 27.271 12.5363 27.2479 12.0116 27.5631ZM16.9813 30.233C16.3901 30.4498 15.9072 31.1138 15.8407 31.8039C15.7648 32.5817 15.8623 32.8907 16.3483 33.4256C17.2708 34.4386 18.7473 34.2403 19.4747 33.006C19.7239 32.5863 19.7688 32.3927 19.7239 31.93C19.6666 31.3367 19.2797 30.7018 18.772 30.3714C18.4052 30.1331 17.458 30.0609 16.9813 30.233ZM3.54103 32.0161C2.84611 32.6494 2.81361 34.0942 3.48531 34.5323C3.86605 34.7783 4.72658 34.8659 5.13362 34.6999C5.81926 34.417 6.03284 33.5424 5.63353 32.6693C5.18625 31.6887 4.22667 31.392 3.54103 32.0161ZM128.41 31.9761C128.139 32.0653 127.655 32.3358 127.332 32.5802C126.135 33.4855 125.603 34.5062 125.603 35.8973C125.603 37.3683 126.236 38.5749 127.415 39.3527C128.311 39.943 128.953 40.1182 130.004 40.0644C131.578 39.9829 132.826 39.1821 133.502 37.8202C133.855 37.1054 133.881 36.9686 133.881 35.8988C133.881 34.9089 133.843 34.666 133.6 34.1711C133.236 33.4379 132.307 32.5126 131.583 32.1652C130.876 31.8285 129.178 31.7256 128.41 31.9761ZM89.1263 32.6248C86.7335 33.1166 85.3019 35.4285 85.9318 37.7802C86.2754 39.0622 87.2149 40.0705 88.5258 40.5609C89.4869 40.9206 90.9123 40.8422 91.8363 40.378C92.5932 39.9998 93.3763 39.1975 93.7741 38.3951C94.0047 37.9309 94.0434 37.6757 94.0434 36.6443C94.0434 35.5453 94.0155 35.3823 93.7214 34.829C92.8516 33.1904 90.9077 32.2574 89.1263 32.6248ZM99.6445 32.6217C98.3878 32.8323 97.1558 33.7177 96.5863 34.8198C96.0151 35.928 96.0167 37.5835 96.5893 38.5411C97.0567 39.322 97.9095 40.0997 98.7004 40.4656C99.3922 40.7868 99.5099 40.8053 100.505 40.7607C101.321 40.7223 101.694 40.6485 102.093 40.4456C103.847 39.5525 104.758 37.834 104.441 36.0079C104.37 35.5945 104.198 35.038 104.062 34.7706C103.509 33.7069 102.331 32.8492 101.115 32.6294C100.363 32.4926 100.411 32.4941 99.6445 32.6217ZM119.348 32.6816C118.115 33.0198 116.971 34.0743 116.513 35.2901C116.202 36.1155 116.304 37.6588 116.725 38.5165C117.087 39.2528 117.925 40.0582 118.743 40.4579C119.211 40.6869 119.468 40.7253 120.506 40.7253C121.569 40.7253 121.792 40.69 122.28 40.4425C123.081 40.0367 123.942 39.1682 124.306 38.3982C124.578 37.8171 124.615 37.6004 124.606 36.6443C124.594 35.3116 124.369 34.7321 123.516 33.836C122.459 32.7293 120.825 32.2743 119.348 32.6816ZM9.6777 32.863C9.05707 33.109 8.51692 33.9144 8.51692 34.5907C8.51692 35.1072 8.90849 35.8588 9.34649 36.1801C9.73651 36.466 10.5955 36.6136 11.114 36.4845C11.9637 36.2708 12.705 34.9858 12.462 34.1419C12.3042 33.5962 11.9343 33.1335 11.4823 32.9214C11.0474 32.717 10.1234 32.6862 9.6777 32.863ZM99.1972 42.9588C98.1432 43.28 97.1806 44.0701 96.642 45.0569C96.2597 45.7532 96.2427 45.8347 96.2427 46.9906C96.2427 48.0943 96.2721 48.251 96.5708 48.8136C96.9917 49.6098 97.7594 50.3446 98.5936 50.7504C99.1771 51.0332 99.3861 51.0716 100.355 51.0716C101.228 51.0732 101.562 51.0224 101.977 50.8318C102.759 50.4737 103.768 49.4946 104.144 48.7383C104.432 48.1527 104.466 47.9605 104.466 46.9337C104.466 45.5011 104.247 44.9985 103.207 44.0332C102.282 43.174 101.479 42.8481 100.316 42.8619C99.8596 42.8665 99.3566 42.9111 99.1972 42.9588ZM109.304 43.071C108.6 43.3307 108.222 43.5828 107.628 44.1931C106.309 45.5503 106.19 47.8422 107.354 49.4177C107.807 50.0326 108.965 50.8395 109.66 51.0271C110.366 51.2177 111.772 51.0932 112.441 50.7811C113.306 50.3769 114.165 49.5268 114.551 48.6922C114.843 48.062 114.885 47.8376 114.88 46.9337C114.876 46.0422 114.831 45.807 114.547 45.2229C114.133 44.3621 113.527 43.7627 112.605 43.2954C111.655 42.8127 110.257 42.719 109.304 43.071ZM120.39 42.9526C118.711 43.4998 117.528 44.9632 117.406 46.6494C117.309 48.0143 117.733 49.0642 118.777 50.0341C119.568 50.7688 120.238 51.0455 121.374 51.1039C122.744 51.1762 123.445 50.8887 124.512 49.822C125.519 48.8136 125.77 48.2049 125.75 46.8307C125.737 46.0514 125.683 45.8209 125.361 45.1907C124.929 44.3452 124.265 43.6904 123.383 43.2416C122.868 42.9772 122.591 42.9188 121.721 42.8911C121.148 42.8742 120.549 42.9019 120.39 42.9526ZM99.5424 53.2036C98.2717 53.5033 97.1465 54.3626 96.5878 55.4601C96.2736 56.0719 96.2427 56.2348 96.2427 57.2816C96.2427 58.6511 96.447 59.1953 97.2935 60.0929C99.2808 62.2019 102.667 61.733 104.071 59.1522C104.438 58.4774 104.463 58.3591 104.464 57.3384C104.466 56.4561 104.418 56.1426 104.213 55.703C103.35 53.8446 101.353 52.7778 99.5424 53.2036ZM109.728 53.2359C107.609 53.8292 106.208 55.9366 106.603 57.9302C107.159 60.737 110.061 62.2249 112.596 61.0075C113.289 60.674 114.181 59.7502 114.566 58.9662C114.843 58.4067 114.885 58.1854 114.882 57.2846C114.879 56.3532 114.84 56.1656 114.504 55.4785C114.066 54.5747 113.467 54.0091 112.422 53.5156C111.571 53.1145 110.54 53.0069 109.728 53.2359ZM120.536 53.2128C119.881 53.3665 118.689 54.1751 118.233 54.7776C117.27 56.0396 117.117 57.6751 117.827 59.1077C118.257 59.9731 118.903 60.5879 119.887 61.0721C120.467 61.358 120.704 61.4056 121.549 61.4118C122.416 61.4179 122.622 61.378 123.286 61.0644C124.14 60.6617 124.857 59.9853 125.333 59.1292C125.637 58.5897 125.66 58.4529 125.66 57.2816C125.66 56.0949 125.64 55.9796 125.316 55.4017C124.898 54.6531 124.067 53.8892 123.216 53.4757C122.5 53.1283 121.364 53.0161 120.536 53.2128ZM88.8307 63.5929C86.8481 64.2155 85.6455 65.9247 85.7894 67.9184C85.8947 69.374 86.7877 70.6575 88.1667 71.3292C88.7626 71.6182 88.9529 71.652 89.9899 71.6505C91.03 71.6505 91.2111 71.6167 91.7605 71.3323C93.497 70.4269 94.3034 68.8514 94.0526 66.8516C93.7679 64.5936 91.0501 62.8966 88.8322 63.5929M99.2561 63.5929C98.0984 63.9588 97.0629 64.8088 96.5166 65.8464C96.2798 66.2937 96.2442 66.5273 96.2442 67.571C96.2442 69.0482 96.4485 69.5708 97.3957 70.5099C98.2407 71.3523 98.8753 71.6244 100.124 71.6843C100.935 71.7243 101.226 71.6874 101.785 71.4799C102.802 71.0987 103.562 70.4239 104.049 69.4693C104.427 68.7269 104.459 68.5839 104.461 67.6279C104.464 66.7502 104.418 66.4965 104.161 65.9478C103.271 64.0587 101.096 63.0135 99.2545 63.5929M120.384 63.5991C119.559 63.9004 119.037 64.2278 118.551 64.7535C116.598 66.8547 117.189 70.0642 119.76 71.3169C120.381 71.6197 120.562 71.652 121.608 71.652C122.64 71.652 122.835 71.6182 123.424 71.3323C124.279 70.9142 125.16 69.9612 125.484 69.105C125.784 68.3073 125.815 66.9454 125.55 66.2014C125.149 65.0855 123.934 63.948 122.767 63.5991C122.085 63.3962 120.943 63.3962 120.384 63.5991ZM130.569 63.6898C129.744 63.9772 129.218 64.363 128.625 65.1224C127.677 66.3352 127.528 67.9983 128.242 69.4386C128.689 70.3378 129.292 70.905 130.328 71.3938C131.009 71.7135 131.126 71.7335 132.122 71.6889C133.061 71.6474 133.275 71.5951 133.914 71.257C134.781 70.7974 135.363 70.1887 135.779 69.3095C136.04 68.7546 136.082 68.5117 136.082 67.571C136.082 66.6303 136.04 66.389 135.777 65.8294C134.887 63.9465 132.567 62.9935 130.569 63.6898ZM139.407 68.9313C138.309 69.3218 137.221 70.4423 136.892 71.5291C136.643 72.3529 136.672 73.5288 136.961 74.2959C137.283 75.1489 138.258 76.1973 139.046 76.5323C140.331 77.0796 141.669 77.0826 142.801 76.5385C143.511 76.1988 144.342 75.3488 144.691 74.6063C144.96 74.0361 145 73.8055 145 72.8033C145 71.7781 144.966 71.5813 144.68 71.0049C144.321 70.2778 143.49 69.4478 142.73 69.0543C142.013 68.6854 140.287 68.6224 139.407 68.9313ZM78.3836 73.9392C77.1811 74.3297 76.2339 75.1628 75.7092 76.2941C75.282 77.2148 75.2851 78.6213 75.7154 79.5543C76.1255 80.4443 76.8127 81.1437 77.7351 81.6079C78.4502 81.9691 78.5988 81.9999 79.5614 81.9999C80.4777 81.9999 80.6928 81.9599 81.2778 81.674C82.1121 81.2682 82.9633 80.452 83.3332 79.7003C83.5839 79.1962 83.6195 78.9702 83.6195 77.862C83.6195 76.7552 83.587 76.5339 83.3487 76.0927C82.9556 75.3595 82.0362 74.5003 81.2763 74.1544C80.4777 73.7917 79.1467 73.6918 78.3836 73.9392ZM88.2394 74.1175C87.4021 74.5356 86.4364 75.5025 86.0742 76.2803C85.8699 76.7214 85.8219 77.0365 85.8219 77.9188C85.8219 78.898 85.856 79.0793 86.1593 79.6742C86.5788 80.495 87.4099 81.2851 88.2859 81.6909C88.8539 81.9568 89.0953 81.9999 89.9915 81.9952C90.8845 81.9922 91.1259 81.9461 91.6893 81.674C92.539 81.2682 93.2989 80.5165 93.7137 79.6773C94.0109 79.0793 94.0434 78.8934 94.0434 77.862C94.0418 76.8275 94.0093 76.6507 93.7168 76.0989C93.3376 75.3811 92.5421 74.6063 91.7264 74.1621C91.2358 73.8931 90.982 73.8393 90.0487 73.804C89.0071 73.764 88.9096 73.7809 88.2394 74.1175ZM130.713 73.9116C129.721 74.1959 128.638 75.1797 128.127 76.2634C127.808 76.9397 127.782 77.0826 127.822 78.0064C127.855 78.7934 127.93 79.1531 128.173 79.6681C128.554 80.4827 129.317 81.2328 130.199 81.6617C130.791 81.9507 131.004 81.9906 131.972 81.9952C132.95 81.9999 133.145 81.9645 133.734 81.6771C134.606 81.2528 135.389 80.4812 135.773 79.6681C136.045 79.0916 136.082 78.8703 136.082 77.862C136.081 76.829 136.048 76.6492 135.76 76.105C135.279 75.1966 134.706 74.6356 133.799 74.1852C133.058 73.8163 132.899 73.7809 132.043 73.7901C131.526 73.7963 130.928 73.8501 130.713 73.9116Z" fill="#528E96"/>
<path d="M131.814 0.0281783C133.525 -0.127989 135.238 0.373157 136.641 1.32798C136.99 1.0258 137.385 0.767402 137.82 0.565288C140.174 -0.52991 143.069 0.433189 144.268 2.76646L144.378 2.99498C145.405 5.27788 144.571 8.09754 142.277 9.33677C143.247 9.97939 143.989 10.815 144.564 11.9471C145.04 12.8865 145.235 13.9359 145.275 14.8358C145.315 15.7423 145.211 16.7906 144.843 17.7596L144.844 17.7606C144.499 18.6688 143.908 19.4593 143.351 20.0438C142.839 20.5805 142.173 21.1326 141.409 21.5282C141.441 21.5966 141.475 21.665 141.504 21.7362C141.905 22.7113 141.97 23.6682 141.974 24.5018V24.8729C141.971 25.2618 141.953 25.6966 141.876 26.1229C141.753 26.8045 141.509 27.3118 141.331 27.6717L141.332 27.6727C140.618 29.1188 139.357 30.3355 137.927 31.034L137.928 31.035C137.555 31.2177 137.073 31.4334 136.438 31.5497C136.12 31.6078 135.804 31.6301 135.509 31.6405C135.735 31.9231 135.952 32.2308 136.138 32.5575L136.287 32.8377L136.293 32.8495L136.439 33.1649C136.583 33.4983 136.715 33.8874 136.793 34.368C136.877 34.8861 136.881 35.4248 136.881 35.8993C136.881 36.3669 136.885 36.9747 136.768 37.5721C136.632 38.26 136.369 38.7908 136.193 39.1483L136.19 39.1542C135.01 41.5287 132.768 42.9254 130.159 43.0604H130.157C129.432 43.0975 128.666 43.0646 127.858 42.8426C127.661 42.7886 127.472 42.7255 127.289 42.6561C127.569 43.0173 127.819 43.407 128.033 43.826L128.179 44.121C128.329 44.4369 128.485 44.8164 128.591 45.2635C128.693 45.6936 128.728 46.1008 128.741 46.452L128.749 46.7831V46.787L128.75 47.1122C128.741 47.8826 128.65 48.7347 128.288 49.6102C127.879 50.5996 127.24 51.3356 126.634 51.9422L126.633 51.9432C126.578 51.9986 126.52 52.0529 126.463 52.1083C127.05 52.6478 127.562 53.2716 127.934 53.9364C128.119 54.2666 128.42 54.8062 128.561 55.5751C128.665 56.1497 128.66 56.7826 128.66 57.2811C128.66 57.7828 128.663 58.4016 128.565 58.9627C128.431 59.7206 128.146 60.2483 127.951 60.5946C127.568 61.2824 127.083 61.9055 126.516 62.4422C126.598 62.5201 126.681 62.5999 126.763 62.6835C127.544 61.8424 128.418 61.2628 129.582 60.8573L129.903 60.7538C133.128 59.8008 136.736 61.2475 138.336 64.243L138.489 64.5477L138.492 64.5526L138.63 64.8602C138.758 65.1635 138.881 65.5175 138.964 65.9422C139.757 65.7528 140.586 65.717 141.24 65.7411C141.95 65.7672 143.004 65.8792 143.921 66.2987L144.103 66.3866L144.11 66.3905L144.352 66.5223C145.56 67.2176 146.746 68.4195 147.365 69.6698C147.551 70.0426 147.782 70.5393 147.902 71.2108C148 71.7624 148 72.3314 148 72.8036C148 73.2846 147.995 73.8346 147.902 74.3749C147.792 75.0175 147.586 75.5009 147.403 75.8876L147.402 75.8866C147.048 76.6391 146.53 77.3063 146.027 77.8211C145.526 78.333 144.861 78.8786 144.095 79.245L144.094 79.244C142.445 80.035 140.632 80.126 138.941 79.6639C138.824 80.197 138.645 80.612 138.486 80.9501L138.485 80.9491C137.785 82.4295 136.481 83.6748 135.048 84.3729L135.049 84.3739C134.685 84.5515 134.19 84.7794 133.531 84.8983C133.114 84.9736 132.694 84.9915 132.318 84.995H131.957C131.497 84.9928 130.942 84.9876 130.39 84.8836C129.744 84.7622 129.256 84.5403 128.882 84.3573C127.445 83.6572 126.154 82.4335 125.455 80.9383C124.993 79.9546 124.867 79.1689 124.824 78.1297C124.806 77.7187 124.779 77.1293 124.885 76.5233C125.003 75.8494 125.255 75.3188 125.413 74.9842L125.576 74.661C125.939 73.9871 126.432 73.3339 127.017 72.7626C126.931 72.682 126.847 72.5989 126.765 72.5135C126.219 73.0848 125.53 73.6425 124.74 74.0282L124.735 74.0301C124.363 74.211 123.868 74.4364 123.202 74.5536C122.652 74.6504 122.085 74.6522 121.609 74.6522C121.132 74.6522 120.553 74.6516 119.99 74.5497C119.316 74.4276 118.812 74.1929 118.444 74.0135C114.189 71.9384 113.105 66.6229 116.056 63.0506L116.354 62.7108C116.441 62.6167 116.529 62.527 116.618 62.4403C116.448 62.2809 116.287 62.1125 116.133 61.9354C116.04 62.041 115.947 62.143 115.855 62.2391C115.362 62.7495 114.682 63.3327 113.897 63.7108L113.895 63.7118C110.883 65.1581 107.593 64.352 105.54 62.1805C105.45 62.2753 105.358 62.3679 105.263 62.4569C105.852 63.0141 106.353 63.6645 106.733 64.3846L106.878 64.6756L107.014 64.9793C107.149 65.3009 107.28 65.6787 107.361 66.1346C107.457 66.6661 107.462 67.1869 107.46 67.6317L107.461 67.6327C107.46 68.0619 107.462 68.6637 107.323 69.284C107.175 69.9456 106.903 70.4758 106.723 70.8299L106.721 70.8338C105.888 72.4645 104.546 73.6488 102.838 74.2889L102.829 74.2918C102.434 74.4387 101.98 74.5826 101.417 74.6522C100.904 74.7156 100.415 74.7021 99.9767 74.6805C99.173 74.6417 98.3037 74.5251 97.423 74.1463C96.5293 73.7619 95.8506 73.2059 95.2775 72.6346C95.2357 72.5932 95.1938 72.5498 95.1515 72.5067C95.0614 72.6003 94.9681 72.6906 94.8732 72.7792C95.4737 73.3442 95.9998 73.9997 96.3673 74.6942L96.5187 74.9901C96.6758 75.3154 96.8418 75.7307 96.9386 76.2538C97.0418 76.8112 97.0424 77.3922 97.0431 77.8573V77.8622L97.0421 78.2323C97.0374 78.6186 97.0175 79.0472 96.9416 79.4667C96.8199 80.1388 96.585 80.6381 96.4025 81.0057L96.4035 81.0067C95.693 82.4441 94.4457 83.6778 92.9933 84.3749L92.9943 84.3758C92.6159 84.5586 92.1412 84.7654 91.5226 84.8827C90.9821 84.9851 90.4513 84.9924 90.006 84.994L90.007 84.995C89.5608 84.9973 89.0294 84.9948 88.4884 84.8983C87.8704 84.788 87.395 84.5865 87.0138 84.4081C86.1944 84.0266 85.4123 83.4617 84.7541 82.784C84.1077 83.4476 83.3474 84.0035 82.59 84.3719L82.589 84.3709C82.2193 84.5515 81.7358 84.7714 81.1017 84.8915C80.5484 84.9962 80.0023 84.9999 79.5617 84.9999C79.1319 84.9999 78.5359 85.003 77.9279 84.8729C77.2621 84.7304 76.7364 84.465 76.382 84.286C74.8888 83.5333 73.6994 82.3488 72.9904 80.8104C72.5554 79.8666 72.3926 78.8349 72.3908 77.9256C72.389 77.018 72.5469 75.9806 72.9874 75.0311C73.8695 73.1296 75.4755 71.7292 77.4572 71.0858L77.7931 70.9891C78.5803 70.7918 79.3906 70.7776 80.0402 70.826C80.7059 70.8757 81.48 71.0129 82.2082 71.2938L82.5167 71.4227L82.5187 71.4237L82.8009 71.5614C83.4505 71.9001 84.0345 72.3524 84.4992 72.787C84.5857 72.8679 84.6723 72.9539 84.7599 73.0428C84.7928 73.0089 84.8249 72.9749 84.8576 72.9422C84.914 72.8859 84.9718 72.8288 85.0314 72.7723C83.813 71.6335 83.0027 70.099 82.8185 68.3758L82.797 68.1346C82.5472 64.6748 84.6991 61.7454 87.9318 60.7303L88.8307 63.5929L88.4679 63.7225C86.7029 64.4306 85.6545 66.0495 85.7894 67.9184C85.8947 69.374 86.7877 70.6575 88.1667 71.3292C88.7626 71.6182 88.9529 71.652 89.9899 71.6505C91.03 71.6505 91.2111 71.6167 91.7605 71.3323C93.497 70.4269 94.3034 68.8514 94.0526 66.8516C93.7679 64.5936 91.0501 62.8966 88.8322 63.5929L87.9337 60.7303C90.0403 60.0691 92.1782 60.5842 93.756 61.5692C94.2475 61.876 94.724 62.2537 95.1554 62.6952C95.2383 62.6114 95.3237 62.53 95.4103 62.4501C95.3087 62.3536 95.2083 62.2541 95.1105 62.1502C94.5736 61.5808 94.0008 60.8774 93.6408 59.9149C93.2929 58.9847 93.2423 58.0728 93.2423 57.2811C93.2423 56.8141 93.2411 56.2228 93.3498 55.6493C93.4813 54.9551 93.7383 54.4417 93.9191 54.0897C94.2954 53.3533 94.8016 52.696 95.3986 52.1376C94.8042 51.5775 94.2946 50.9249 93.921 50.2196C93.7358 49.8707 93.4728 49.3574 93.3429 48.6385C93.2415 48.0768 93.2423 47.4785 93.2423 46.9911C93.2423 46.5216 93.2337 45.8625 93.3615 45.244C93.4782 44.6793 93.6886 44.2208 93.8595 43.8944L94.0119 43.6131C94.3793 42.9417 94.859 42.3283 95.4191 41.7977C95.3338 41.7178 95.2509 41.6356 95.1691 41.5526C94.5863 42.1676 93.9038 42.6958 93.1818 43.0575L93.1828 43.0585C92.2693 43.5173 91.2587 43.7247 90.3605 43.7743C89.5754 43.8176 88.689 43.7508 87.8371 43.493L87.4748 43.371C85.447 42.6125 83.8537 41.044 83.1603 38.9764L83.0343 38.5565C82.3189 35.8854 83.174 33.225 85.0197 31.4911C84.9359 31.4129 84.8539 31.3328 84.7736 31.2508C82.1198 34.0309 77.5366 34.3436 74.5753 31.4842C73.7739 30.7103 73.1118 29.6216 72.7267 28.4901C70.5123 29.1855 67.9482 28.7372 66.0138 26.9413C64.9657 25.969 64.3294 24.7568 64.0714 23.4696C63.6809 23.8599 63.1651 24.3016 62.5675 24.6034L62.5646 24.6044C59.3414 26.2283 55.4206 25.0255 53.6623 21.8739C53.6095 21.7796 53.5507 21.6692 53.4884 21.5458C53.1451 21.7287 52.8033 21.8707 52.4835 21.9735C51.5773 22.2649 50.3458 22.4263 49.1281 22.0282L49.1251 22.0272C48.4321 21.7998 47.8083 21.4348 47.299 21.034C45.9198 23.1086 43.4957 23.8874 41.2755 23.3163C41.2415 24.4962 40.8552 25.7422 39.9132 26.7245C38.91 27.7704 37.5776 28.203 36.2931 28.1952L36.2912 28.1961C35.5846 28.1918 34.7705 28.0745 33.966 27.6688C33.6512 27.5101 33.3708 27.3234 33.1203 27.118C32.231 27.8757 31.0807 28.3093 29.9005 28.3446C29.5729 29.3188 28.962 30.1195 28.2667 30.7254L28.0382 30.9159C27.7702 31.1285 27.3682 31.4037 26.839 31.5897C26.1733 31.8237 25.5587 31.8251 25.2658 31.8251C24.3982 31.825 23.4614 31.5783 22.6281 31.1141C22.6649 31.2881 22.693 31.4638 22.7101 31.6405L22.7326 31.9354C22.7496 32.264 22.7414 32.6886 22.632 33.161C22.4908 33.7707 22.2301 34.239 22.0587 34.5282L22.0597 34.5292C21.2722 35.8655 19.9534 36.8214 18.3839 37.0321C17.2383 37.1859 16.1061 36.918 15.1515 36.3065C15.0428 36.5836 14.9201 36.833 14.797 37.0467C14.3111 37.8903 13.3519 39.0145 11.8458 39.3934L11.839 39.3954C11.0399 39.5944 10.2456 39.5427 9.673 39.4442C9.1971 39.3623 8.50272 39.1849 7.84976 38.785L7.57241 38.5995C7.09133 38.2466 6.71927 37.8138 6.4396 37.4002C6.38633 37.4245 6.3329 37.4506 6.27749 37.4735L6.26675 37.4774C5.39404 37.8333 4.49912 37.8059 3.99624 37.7547C3.48104 37.7023 2.62482 37.5481 1.85757 37.0526L1.84683 37.0448C0.250201 36.0035 -0.020208 34.2379 0.00112362 33.2801C0.0248567 32.219 0.401297 30.8188 1.52065 29.7987L1.52163 29.7977L1.73257 29.617C2.26668 29.189 2.88318 28.9026 3.53237 28.7713C3.26749 28.0863 3.20893 27.4065 3.2062 26.953C3.20305 26.4248 3.26787 25.534 3.70523 24.6991L3.83511 24.4686C4.14963 23.9439 4.5469 23.5136 4.89761 23.201C5.2645 22.8741 5.88767 22.3991 6.68569 22.161L6.69351 22.159L6.96108 22.0897C7.58257 21.951 8.1728 21.9686 8.61831 22.0233C8.96716 22.0662 9.34759 22.1474 9.73062 22.2792C9.76565 21.9972 9.82358 21.7078 9.91226 21.4129L9.91616 21.4022L10.0011 21.1454C10.4577 19.8754 11.3587 18.8591 12.6291 18.2684L12.9289 18.1405C13.4229 17.9487 13.9316 17.8425 14.4376 17.8124C14.611 17.0623 14.9508 16.4188 15.2824 15.9422C15.7617 15.2534 16.5441 14.4535 17.633 14.036L17.6437 14.0321L17.8546 13.9588C18.9041 13.6246 19.931 13.757 20.6525 13.9647C21.4611 14.1976 22.357 14.657 23.0636 15.4139C23.1735 15.5312 23.2733 15.6545 23.3693 15.7801C23.4664 15.766 23.5612 15.7554 23.6525 15.7469C22.513 13.1373 23.8053 10.3067 26.3107 9.25279L26.5666 9.15318C27.8861 8.67557 29.3069 8.83232 30.4591 9.40806C30.226 9.11074 30.0273 8.77827 29.8751 8.41197L29.7619 8.10826C29.1674 6.31908 29.9022 4.34751 31.3673 3.32798L31.5451 3.20982C33.3938 2.04621 35.4344 2.64628 36.589 3.68833C37.1972 4.23731 37.7149 5.0583 37.9123 5.99986C37.9652 5.9824 38.0182 5.96396 38.0724 5.9481L38.0783 5.94615L38.3937 5.86314C39.8928 5.50817 41.4669 5.70466 42.7824 6.51646C42.6556 5.77423 42.7405 5.03234 42.9582 4.37779C43.4693 2.83985 44.7559 1.84627 46.215 1.5858L46.2199 1.58482L46.4474 1.55064C47.5876 1.40803 48.7784 1.69916 49.7238 2.48619C50.3553 3.01201 50.7894 3.68669 51.0265 4.42076C51.4305 3.14132 52.3439 2.01231 53.7267 1.40123L53.7287 1.40025L54.0412 1.27525C55.6048 0.708594 57.2071 1.02001 58.38 1.70591C59.3021 2.24515 60.206 3.17291 60.6173 4.41783C61.8669 4.25678 63.1183 4.52398 64.214 5.05064C64.2859 4.93484 64.3639 4.81932 64.4503 4.70689C64.9521 4.05451 65.5767 3.63788 66.1632 3.37095L66.1769 3.36509C67.2314 2.8916 68.4641 2.83804 69.5968 3.35142C70.626 3.81795 71.3251 4.6365 71.7335 5.50083L71.8117 5.67369L71.8146 5.68248L71.8517 5.78013C72.2805 5.73105 72.6984 5.71829 73.0802 5.7313C73.8537 5.75768 74.8545 5.89785 75.7472 6.33189L75.7482 6.33287L75.9845 6.45201C76.2384 6.58507 76.4854 6.73042 76.7238 6.88853C76.8625 6.71665 77.0145 6.54862 77.1818 6.38658L77.1828 6.38462L77.383 6.20103C77.5859 6.02306 77.7963 5.86319 77.9943 5.72935C78.1919 5.59581 78.6337 5.31053 79.1769 5.14732L79.1867 5.14439L79.4054 5.08384C81.6029 4.53563 83.966 5.47892 85.133 7.47447L85.2453 7.67662L85.2511 7.68833L85.3341 7.8563C85.7233 8.70251 85.764 9.5883 85.7472 10.121C85.7428 10.2616 85.732 10.428 85.7111 10.6122C86.0619 10.7144 86.4119 10.8471 86.7482 11.0174C88.1418 11.7217 89.3256 12.8437 90.0451 14.2567C90.6057 13.7257 91.2805 13.3174 92.0187 13.0809L92.0216 13.0799L92.3458 12.9911C93.099 12.8174 93.8185 12.8703 94.3312 12.9588C94.8733 13.0524 95.5069 13.2419 96.1046 13.5809L96.3585 13.7352L96.3624 13.7381L96.6359 13.9305C99.3619 15.9894 99.1804 20.2027 96.3673 22.0838L96.3664 22.0829C96.2078 22.1889 96.0457 22.2815 95.883 22.3661C96.1682 22.7599 96.4221 23.1944 96.6212 23.6844C96.6654 23.7932 96.7053 23.9021 96.7423 24.0106C97.8482 23.5313 99.0838 23.5132 100.167 23.9403C101.533 24.4787 102.776 25.8246 102.777 27.7303C102.777 28.4455 102.595 29.1696 102.26 29.8202C103.998 30.3051 105.591 31.4816 106.527 33.035L106.724 33.3876L106.73 33.3983L106.735 33.409C107.045 34.019 107.291 34.8816 107.397 35.494L107.443 35.7967C107.751 38.1453 106.88 40.3212 105.262 41.8475C105.341 41.9207 105.421 41.9969 105.502 42.076C106.358 41.2017 107.101 40.686 108.265 40.2567L108.603 40.1434C110.319 39.6261 112.406 39.831 113.96 40.619C114.31 40.7963 114.64 40.9929 114.949 41.2088C114.584 40.7816 114.269 40.3198 114.033 39.8407L114.032 39.8387C113.592 38.941 113.406 37.9199 113.351 37.0887C113.297 36.2785 113.338 35.2057 113.705 34.2323L113.866 33.8436C114.673 32.052 116.277 30.5607 118.15 29.9139L118.555 29.7879C118.64 29.7644 118.727 29.7428 118.813 29.7225C118.607 29.3903 118.422 29.0353 118.279 28.661L118.276 28.6502C118.127 28.2551 117.982 27.8011 117.912 27.2381C117.849 26.7261 117.862 26.237 117.884 25.8016C117.951 24.4568 118.331 23.1372 119.162 21.9833C119.87 21.0008 120.799 20.287 121.826 19.7772C121.684 19.4638 121.534 19.0835 121.436 18.6346C121.31 18.0575 121.303 17.5138 121.301 17.0897C121.292 15.2162 121.818 13.6386 123.109 12.2118L123.112 12.2069L123.396 11.9071C123.691 11.6065 124.029 11.3067 124.444 11.0311C124.842 10.7674 125.243 10.5708 125.632 10.4071C125.476 10.0855 125.3 9.66094 125.199 9.13658C125.086 8.54719 125.091 7.92231 125.091 7.44029C125.091 6.94015 125.099 6.41203 125.174 5.90904C125.265 5.29964 125.437 4.82997 125.635 4.40513L125.741 4.1854C126.872 1.93559 128.995 0.410536 131.501 0.0633345L131.814 0.0281783ZM81.2763 74.1544C80.4777 73.7917 79.1467 73.6918 78.3836 73.9392C77.1811 74.3297 76.2339 75.1628 75.7092 76.2941C75.282 77.2148 75.2851 78.6213 75.7154 79.5543C76.1255 80.4443 76.8127 81.1437 77.7351 81.6079C78.4502 81.9691 78.5988 81.9999 79.5614 81.9999C80.4777 81.9999 80.6928 81.9599 81.2778 81.674C82.1121 81.2682 82.9633 80.452 83.3332 79.7003C83.5839 79.1962 83.6195 78.9702 83.6195 77.862C83.6195 76.7552 83.587 76.5339 83.3487 76.0927C82.9556 75.3595 82.0362 74.5003 81.2763 74.1544ZM90.0487 73.804C89.0071 73.764 88.9096 73.7809 88.2394 74.1175C87.4021 74.5356 86.4364 75.5025 86.0742 76.2803C85.8699 76.7214 85.8219 77.0365 85.8219 77.9188C85.8219 78.898 85.856 79.0793 86.1593 79.6742C86.5788 80.495 87.4099 81.2851 88.2859 81.6909C88.8539 81.9568 89.0953 81.9999 89.9915 81.9952C90.8845 81.9922 91.1259 81.9461 91.6893 81.674C92.539 81.2682 93.2989 80.5165 93.7137 79.6773C94.0109 79.0793 94.0434 78.8934 94.0434 77.862C94.0418 76.8275 94.0093 76.6507 93.7168 76.0989C93.3376 75.3811 92.5421 74.6063 91.7264 74.1621C91.2358 73.8931 90.982 73.8393 90.0487 73.804ZM132.043 73.7901C131.526 73.7963 130.928 73.8501 130.713 73.9116C129.721 74.1959 128.638 75.1797 128.127 76.2634C127.808 76.9397 127.782 77.0826 127.822 78.0064C127.855 78.7934 127.93 79.1531 128.173 79.6681C128.554 80.4827 129.317 81.2328 130.199 81.6617C130.791 81.9507 131.004 81.9906 131.972 81.9952C132.95 81.9999 133.145 81.9645 133.734 81.6771C134.606 81.2528 135.389 80.4812 135.773 79.6681C136.045 79.0916 136.082 78.8703 136.082 77.862C136.081 76.829 136.048 76.6492 135.76 76.105C135.279 75.1966 134.706 74.6356 133.799 74.1852C133.058 73.8163 132.899 73.7809 132.043 73.7901ZM142.73 69.0543C142.013 68.6854 140.287 68.6224 139.407 68.9313C138.309 69.3218 137.221 70.4423 136.892 71.5291C136.643 72.3529 136.672 73.5288 136.961 74.2959C137.283 75.1489 138.258 76.1973 139.046 76.5323C140.331 77.0796 141.669 77.0826 142.801 76.5385C143.511 76.1988 144.342 75.3488 144.691 74.6063C144.96 74.0361 145 73.8055 145 72.8033C145 71.7781 144.966 71.5813 144.68 71.0049C144.321 70.2778 143.49 69.4478 142.73 69.0543ZM135.777 65.8294C134.887 63.9465 132.567 62.9935 130.569 63.6898C129.744 63.9772 129.218 64.363 128.625 65.1224C127.677 66.3352 127.528 67.9983 128.242 69.4386C128.689 70.3378 129.292 70.905 130.328 71.3938C131.009 71.7135 131.126 71.7335 132.122 71.6889C133.061 71.6474 133.275 71.5951 133.914 71.257C134.781 70.7974 135.363 70.1887 135.779 69.3095C136.04 68.7546 136.082 68.5117 136.082 67.571C136.082 66.6303 136.04 66.389 135.777 65.8294ZM104.161 65.9478C103.271 64.0587 101.096 63.0135 99.2545 63.5929L99.0402 63.6669C97.9706 64.0655 97.0288 64.8737 96.5166 65.8464C96.2798 66.2937 96.2442 66.5273 96.2442 67.571C96.2442 69.0482 96.4485 69.5708 97.3957 70.5099C98.2407 71.3523 98.8753 71.6244 100.124 71.6843C100.935 71.7243 101.226 71.6874 101.785 71.4799C102.802 71.0987 103.562 70.4239 104.049 69.4693C104.427 68.7269 104.459 68.5839 104.461 67.6279C104.464 66.7502 104.418 66.4965 104.161 65.9478ZM122.767 63.5991C122.085 63.3962 120.943 63.3962 120.384 63.5991C119.559 63.9004 119.037 64.2278 118.551 64.7535C116.598 66.8547 117.189 70.0642 119.76 71.3169C120.381 71.6197 120.562 71.652 121.608 71.652C122.64 71.652 122.835 71.6182 123.424 71.3323C124.279 70.9142 125.16 69.9612 125.484 69.105C125.784 68.3073 125.815 66.9454 125.55 66.2014C125.149 65.0855 123.934 63.948 122.767 63.5991ZM112.422 53.5156C111.571 53.1145 110.54 53.0069 109.728 53.2359C107.609 53.8292 106.208 55.9366 106.603 57.9302C107.159 60.737 110.061 62.2249 112.596 61.0075C113.289 60.674 114.181 59.7502 114.566 58.9662C114.843 58.4067 114.885 58.1854 114.882 57.2846C114.879 56.3532 114.84 56.1656 114.504 55.4785C114.066 54.5747 113.467 54.0091 112.422 53.5156ZM104.213 55.703C103.35 53.8446 101.353 52.7778 99.5424 53.2036C98.2717 53.5033 97.1465 54.3626 96.5878 55.4601C96.2736 56.0719 96.2427 56.2348 96.2427 57.2816C96.2427 58.6511 96.447 59.1953 97.2935 60.0929C99.2808 62.2019 102.667 61.733 104.071 59.1522C104.438 58.4774 104.463 58.3591 104.464 57.3384C104.466 56.4561 104.418 56.1426 104.213 55.703ZM123.216 53.4757C122.5 53.1283 121.364 53.0161 120.536 53.2128C119.881 53.3665 118.689 54.1751 118.233 54.7776C117.27 56.0396 117.117 57.6751 117.827 59.1077C118.257 59.9731 118.903 60.5879 119.887 61.0721C120.467 61.358 120.704 61.4056 121.549 61.4118C122.416 61.4179 122.622 61.378 123.286 61.0644C124.14 60.6617 124.857 59.9853 125.333 59.1292C125.637 58.5897 125.66 58.4529 125.66 57.2816C125.66 56.0949 125.64 55.9796 125.316 55.4017C124.898 54.6531 124.067 53.8892 123.216 53.4757ZM116.153 51.6385C116.008 51.8031 115.856 51.9619 115.697 52.1141C115.859 52.2633 116.014 52.4195 116.161 52.5858C116.31 52.4236 116.466 52.2692 116.626 52.1249C116.46 51.9657 116.301 51.8052 116.153 51.6385ZM105.522 51.8661C105.446 51.944 105.372 52.0195 105.298 52.0907C105.286 52.102 105.274 52.1125 105.262 52.1239C105.354 52.2113 105.445 52.3005 105.532 52.3924C105.618 52.3025 105.707 52.2145 105.797 52.1288C105.704 52.0448 105.612 51.9565 105.522 51.8661ZM112.605 43.2954C111.655 42.8127 110.257 42.719 109.304 43.071C108.6 43.3307 108.222 43.5828 107.628 44.1931C106.309 45.5503 106.19 47.8422 107.354 49.4177C107.807 50.0326 108.965 50.8395 109.66 51.0271C110.366 51.2177 111.772 51.0932 112.441 50.7811C113.306 50.3769 114.165 49.5268 114.551 48.6922C114.843 48.062 114.885 47.8376 114.88 46.9337C114.876 46.0422 114.831 45.807 114.547 45.2229C114.133 44.3621 113.527 43.7627 112.605 43.2954ZM121.721 42.8911C121.148 42.8742 120.549 42.9019 120.39 42.9526C118.711 43.4998 117.528 44.9632 117.406 46.6494C117.309 48.0143 117.733 49.0642 118.777 50.0341C119.568 50.7688 120.238 51.0455 121.374 51.1039C122.744 51.1762 123.445 50.8887 124.512 49.822C125.519 48.8136 125.77 48.2049 125.75 46.8307C125.737 46.0514 125.683 45.8209 125.361 45.1907C124.929 44.3452 124.265 43.6904 123.383 43.2416C122.868 42.9772 122.591 42.9188 121.721 42.8911ZM100.316 42.8619C99.8596 42.8665 99.3566 42.9111 99.1972 42.9588C98.1432 43.28 97.1806 44.0701 96.642 45.0569C96.2597 45.7532 96.2427 45.8347 96.2427 46.9906C96.2427 48.0943 96.2721 48.251 96.5708 48.8136C96.9917 49.6098 97.7594 50.3446 98.5936 50.7504C99.1771 51.0332 99.3861 51.0716 100.355 51.0716C101.228 51.0732 101.562 51.0224 101.977 50.8318C102.759 50.4737 103.768 49.4946 104.144 48.7383C104.432 48.1527 104.466 47.9605 104.466 46.9337C104.466 45.5011 104.247 44.9985 103.207 44.0332C102.282 43.174 101.479 42.8481 100.316 42.8619ZM93.7214 34.829C92.8516 33.1904 90.9077 32.2574 89.1263 32.6248C86.7335 33.1166 85.3019 35.4285 85.9318 37.7802C86.2754 39.0622 87.2149 40.0705 88.5258 40.5609C89.4869 40.9206 90.9123 40.8422 91.8363 40.378C92.5932 39.9998 93.3763 39.1975 93.7741 38.3951C94.0047 37.9309 94.0434 37.6757 94.0434 36.6443C94.0434 35.5453 94.0155 35.3823 93.7214 34.829ZM101.115 32.6294C100.363 32.4926 100.411 32.4941 99.6445 32.6217C98.3878 32.8323 97.1558 33.7177 96.5863 34.8198C96.0151 35.928 96.0167 37.5835 96.5893 38.5411C97.0567 39.322 97.9095 40.0997 98.7004 40.4656C99.3922 40.7868 99.5099 40.8053 100.505 40.7607C101.321 40.7223 101.694 40.6485 102.093 40.4456C103.847 39.5525 104.758 37.834 104.441 36.0079C104.37 35.5945 104.198 35.038 104.062 34.7706C103.509 33.7069 102.331 32.8492 101.115 32.6294ZM123.516 33.836C122.459 32.7293 120.825 32.2743 119.348 32.6816C118.115 33.0198 116.971 34.0743 116.513 35.2901C116.202 36.1155 116.304 37.6588 116.725 38.5165C117.087 39.2528 117.925 40.0582 118.743 40.4579C119.211 40.6869 119.468 40.7253 120.506 40.7253C121.569 40.7253 121.792 40.69 122.28 40.4425C123.081 40.0367 123.942 39.1682 124.306 38.3982C124.578 37.8171 124.615 37.6004 124.606 36.6443C124.594 35.3116 124.369 34.7321 123.516 33.836ZM131.583 32.1652C130.876 31.8285 129.178 31.7256 128.41 31.9761C128.139 32.0653 127.655 32.3358 127.332 32.5802C126.135 33.4855 125.603 34.5062 125.603 35.8973C125.603 37.3683 126.236 38.5749 127.415 39.3527C128.311 39.943 128.953 40.1182 130.004 40.0644C131.578 39.9829 132.826 39.1821 133.502 37.8202C133.855 37.1054 133.881 36.9686 133.881 35.8988C133.881 34.9089 133.843 34.666 133.6 34.1711C133.236 33.4379 132.307 32.5126 131.583 32.1652ZM11.4823 32.9214C11.0474 32.717 10.1234 32.6862 9.6777 32.863C9.05707 33.109 8.51692 33.9144 8.51692 34.5907C8.51692 35.1072 8.90849 35.8588 9.34649 36.1801C9.73651 36.466 10.5955 36.6136 11.114 36.4845C11.9637 36.2708 12.705 34.9858 12.462 34.1419C12.3042 33.5962 11.9343 33.1335 11.4823 32.9214ZM5.2687 32.1239C4.77378 31.6043 4.0752 31.5299 3.54103 32.0161C3.37004 32.1719 3.2397 32.3773 3.14956 32.6044C3.0138 32.7997 2.92296 33.0036 2.8771 33.1903C2.80348 33.49 2.83766 33.7092 2.87319 33.8299L2.90542 33.9169L2.90444 33.9139C2.94168 33.9956 3.05825 34.1911 3.30483 34.368C3.35851 34.4313 3.4172 34.4879 3.48531 34.5323C3.86605 34.7783 4.72658 34.8659 5.13362 34.6999C5.70962 34.4621 5.95056 33.8071 5.77651 33.0858C5.80328 33.0087 5.83461 32.9343 5.8644 32.8602C5.77141 32.6606 5.59433 32.3754 5.2687 32.1239ZM18.772 30.3714C18.4052 30.1331 17.458 30.0609 16.9813 30.233C16.3901 30.4498 15.9072 31.1138 15.8407 31.8039C15.7648 32.5817 15.8623 32.8907 16.3483 33.4256C17.2708 34.4386 18.7473 34.2403 19.4747 33.006C19.7239 32.5863 19.7688 32.3927 19.7239 31.93C19.6666 31.3367 19.2797 30.7018 18.772 30.3714ZM95.4884 30.8827C95.3036 31.103 95.1047 31.3129 94.8917 31.5116C94.9804 31.5933 95.0669 31.6774 95.1515 31.7635C95.3619 31.5513 95.5867 31.3528 95.8214 31.1669C95.7152 31.0829 95.602 30.9892 95.4884 30.8827ZM13.7017 27.6814C12.8753 27.271 12.5363 27.2479 12.0116 27.5631C11.5705 27.8321 11.1852 28.5791 11.1852 29.1709C11.1852 29.9717 11.781 30.8494 12.5069 31.123C13.2483 31.4028 14.5576 30.8263 14.9229 30.0609C15.3887 29.0848 15.0003 28.3255 13.7017 27.6814ZM81.397 22.6597C80.538 22.24 79.0646 22.157 78.167 22.4752C76.4134 23.0977 75.2124 24.8931 75.3718 26.6531C75.4538 27.5554 76.0002 28.6898 76.6595 29.3261C78.6669 31.2644 82.0115 30.6972 83.3038 28.1994C83.7078 27.417 83.8006 25.9245 83.5035 24.9869C83.2357 24.1384 82.287 23.0901 81.397 22.6597ZM90.1044 22.3061C89.5318 22.2923 88.9328 22.323 88.7734 22.3753C87.6776 22.7258 86.6082 23.6511 86.1315 24.6625C85.8668 25.222 85.8204 25.471 85.8204 26.3533C85.8204 27.2357 85.8668 27.4847 86.1299 28.0442C86.5401 28.9096 87.3371 29.6812 88.2719 30.1162C88.9235 30.419 89.1712 30.4713 89.993 30.4759C90.8582 30.4805 91.0253 30.4436 91.7233 30.0916C93.2649 29.3169 94.1006 27.9996 94.1006 26.3533C94.1006 25.1498 93.7911 24.3858 92.96 23.5497C92.0251 22.6074 91.403 22.3353 90.1044 22.3061ZM125.196 22.071C124.309 22.0402 124.06 22.074 123.509 22.3046C121.828 23.0086 120.967 24.2045 120.881 25.9522C120.84 26.7545 120.878 27.0466 121.083 27.5938C121.416 28.4684 122.387 29.5137 123.266 29.9425C123.845 30.2238 124.053 30.2622 125.024 30.2622C125.985 30.2622 126.203 30.2238 126.763 29.9502C127.542 29.5705 128.353 28.7897 128.802 27.9858C129.105 27.4386 129.133 27.291 129.133 26.2365C129.133 25.1667 129.107 25.0299 128.754 24.3151C128.339 23.4774 127.816 22.964 126.849 22.4399C126.33 22.1586 126.084 22.1032 125.196 22.071ZM98.4669 26.1708C97.8001 26.1708 97.3507 26.474 97.0841 26.8436C97.0528 27.3374 96.9744 27.8136 96.8517 28.2694C97.037 28.9171 97.5338 29.3519 97.966 29.5223C98.4717 29.7217 98.9799 29.6421 99.3429 29.4002L99.0783 29.0028C99.0802 29.0017 99.0822 29.001 99.0841 28.9999L99.3498 29.3954C99.8992 29.0269 100.377 28.1502 100.023 27.1942L99.9425 27.0057C99.8163 26.7451 99.6819 26.598 99.6378 26.5516C99.5818 26.4926 99.5386 26.4575 99.507 26.4354C99.4778 26.415 99.4116 26.3725 99.298 26.3251C99.2281 26.2959 98.9895 26.1992 98.6291 26.1756L98.4669 26.1708ZM25.2894 24.9561C24.7694 24.9039 24.61 24.9377 24.2711 25.1667C23.7232 25.5371 23.2202 26.2811 23.149 26.8222C23.0128 27.8782 24.0157 28.825 25.2662 28.825C25.7894 28.825 25.941 28.7712 26.2955 28.4638C27.2055 27.6707 27.4067 26.6669 26.817 25.8584C26.3543 25.2236 26.0246 25.0284 25.2894 24.9561ZM8.99206 25.2143C8.5618 24.9976 7.93343 24.9208 7.54341 25.036C7.15184 25.1529 6.59466 25.6478 6.36405 26.089C6.14892 26.4963 6.15511 27.3709 6.37334 27.7905C6.60704 28.2409 7.2478 28.7082 7.73997 28.7866C8.93016 28.9787 10.2983 27.6968 10.0878 26.5885C10.0012 26.1305 9.45483 25.4465 8.99206 25.2143ZM136.373 20.6891C135.511 20.3924 134.151 20.3479 133.464 20.5923C132.465 20.9458 131.606 21.7174 131.083 22.7319C130.786 23.3083 130.755 23.4728 130.755 24.5718C130.755 25.7308 130.772 25.8092 131.156 26.5117C131.592 27.3125 132.309 27.9366 133.309 28.3869C133.767 28.5945 134.095 28.6483 134.925 28.6498C135.83 28.6529 136.053 28.6129 136.608 28.3408C137.469 27.9212 138.234 27.1711 138.642 26.3441C138.947 25.7277 138.978 25.5556 138.973 24.515C138.967 23.107 138.73 22.5321 137.768 21.5806C137.274 21.0934 136.952 20.8874 136.373 20.6891ZM20.3105 25.0176C19.7982 24.6564 18.7953 24.5934 18.2536 24.89C17.7057 25.1898 17.4333 25.7416 17.4333 26.5578C17.4333 27.809 17.9518 28.4853 18.9763 28.5699C19.7502 28.6344 20.425 28.3224 20.846 27.706C21.3985 26.899 21.1416 25.6048 20.3105 25.0176ZM74.0702 20.5246C73.3273 18.9568 71.4437 18.0806 69.7969 18.5387C68.3715 18.9322 67.5295 19.6377 67.1643 20.7383C66.6628 22.2569 66.9987 23.7633 68.0542 24.7425C70.1297 26.67 73.3613 25.8645 74.2389 23.2038C74.4958 22.4276 74.4215 21.267 74.0702 20.5246ZM30.3597 21.6375C29.6803 21.4361 29.442 21.4331 28.9034 21.6175C28.6526 21.7036 28.3725 21.9403 28.1512 22.2539C27.4423 23.2576 27.7735 24.6272 28.8476 25.1483C30.1941 25.8 31.7867 24.8777 31.7929 23.4421C31.796 22.5782 31.2605 21.9034 30.3597 21.6375ZM37.1557 21.5068C36.7239 21.3285 35.9207 21.3162 35.5012 21.4807C34.407 21.9142 33.9628 23.3591 34.6175 24.3413C35.0153 24.9377 35.5198 25.1913 36.3107 25.1959C37.5195 25.2036 38.2794 24.4104 38.2794 23.1439C38.2794 22.5936 38.2299 22.4552 37.9048 22.0863C37.699 21.8542 37.3631 21.5929 37.1557 21.5068ZM16.7384 22.7242C16.7384 21.307 15.2139 20.3755 13.8937 20.9888C13.3349 21.2486 12.9681 21.6775 12.7855 22.2769C12.3754 23.6403 13.7497 24.9392 15.2139 24.5749C16.2384 24.3182 16.7384 23.7111 16.7384 22.7242ZM25.226 18.8661C24.8174 18.6939 23.8841 18.6678 23.5065 18.8184C23.1242 18.9721 22.5469 19.7053 22.4649 20.1419C22.2869 21.0795 22.8116 21.9895 23.7742 22.4122C24.3887 22.6812 24.9025 22.6028 25.5448 22.1401C26.3697 21.5468 26.6483 20.8075 26.3434 20.0097C26.1763 19.5685 25.6764 19.0582 25.226 18.8661ZM59.6486 15.1785C58.98 15.1432 58.7153 15.1862 58.152 15.4214C57.3766 15.7457 56.7033 16.3391 56.2514 17.0984C55.9743 17.5611 55.9418 17.7302 55.9418 18.7078C55.9418 19.7023 55.9712 19.856 56.2823 20.4124C57.2574 22.1601 59.4273 22.8257 61.2149 21.9249C61.7659 21.6467 62.5629 20.769 62.8694 20.1081C63.2579 19.2642 63.2207 18.0407 62.7812 17.1783C62.1466 15.9363 61.0802 15.2554 59.6486 15.1785ZM85.3963 13.6952C84.5621 13.271 83.2094 13.1941 82.3195 13.5215C81.5797 13.7951 81.2005 14.0565 80.5922 14.7113C79.9298 15.4245 79.6822 16.1346 79.6822 17.329C79.6822 18.159 79.7301 18.4019 79.9963 18.9414C80.4746 19.9067 81.041 20.4893 81.9155 20.9166C82.6213 21.2624 82.7822 21.2947 83.7387 21.2916C84.6472 21.2886 84.8778 21.2455 85.4443 20.9688C86.2197 20.5923 86.8945 19.8744 87.382 18.906C87.6854 18.3035 87.7318 18.0868 87.7318 17.2721C87.7318 16.4544 87.6854 16.2392 87.3805 15.6335C86.9734 14.825 86.2723 14.1379 85.3963 13.6952ZM130.235 13.2326C129.413 12.8222 127.926 12.7345 127.107 13.0481C126.24 13.3786 125.887 13.6138 125.333 14.224C124.595 15.0402 124.295 15.8718 124.301 17.0784C124.304 17.9131 124.352 18.1267 124.668 18.7677C125.09 19.6208 125.83 20.3263 126.76 20.7644C127.308 21.0226 127.551 21.0657 128.497 21.0657C129.46 21.0657 129.679 21.0257 130.237 20.7537C131.089 20.3386 131.783 19.6316 132.236 18.717C132.57 18.0422 132.608 17.8654 132.601 16.9862C132.595 16.1715 132.54 15.8887 132.275 15.3046C131.89 14.4592 131.113 13.6691 130.235 13.2326ZM20.8707 17.4612C20.3399 16.8924 19.3277 16.6019 18.707 16.8371C17.9935 17.1107 17.3172 18.0822 17.3203 18.8307C17.3234 19.2995 17.7211 20.0374 18.1375 20.3432C19.1125 21.0611 20.7438 20.6384 21.2128 19.5455C21.513 18.8461 21.3753 17.9976 20.8707 17.4612ZM44.9686 16.9262C44.2257 15.4906 42.8962 15.0033 41.5466 15.672C40.8888 15.9978 40.5669 16.3683 40.3038 17.1061C39.9153 18.199 40.2202 19.3564 41.0529 19.9559C42.4071 20.9289 44.1607 20.5692 44.9345 19.1566C45.3694 18.3634 45.3803 17.7163 44.9686 16.9262ZM94.7151 16.2453C94.2291 15.9271 93.4103 15.7857 92.9337 15.9379C92.07 16.2146 91.437 17.0507 91.437 17.9208C91.437 19.484 93.3747 20.477 94.6996 19.5901C95.8697 18.8077 95.8774 17.0092 94.7151 16.2453ZM76.7404 18.4754C76.6486 18.5353 76.555 18.5927 76.4601 18.6483C76.5256 18.7557 76.5892 18.8647 76.6486 18.9764L76.7814 19.2401L76.9142 19.5438C76.9373 19.6012 76.9565 19.6598 76.9777 19.7176C77.0017 19.7083 77.0258 19.6993 77.0499 19.6903C76.9515 19.4363 76.8594 19.1485 76.7951 18.8192C76.7725 18.7036 76.7548 18.5885 76.7404 18.4754ZM36.3711 16.9201C35.9005 15.9886 35.0524 15.5936 34.1702 15.8964C33.2493 16.2099 32.6008 17.2859 32.7757 18.2067C32.9568 19.1781 34.2816 19.919 35.3171 19.63C36.5165 19.298 36.9762 18.116 36.3711 16.9201ZM139.925 11.4557C138.882 10.9792 137.681 10.8839 136.769 11.2082C134.956 11.8522 133.854 13.4847 133.963 15.3707C134.138 18.3527 137.198 20.1788 139.916 18.923C140.769 18.5295 141.724 17.5273 142.039 16.6957C142.415 15.7073 142.349 14.2102 141.889 13.3048C141.44 12.4194 140.882 11.8937 139.925 11.4557ZM51.4241 14.121C50.8406 13.9765 50.6533 13.9765 50.093 14.1272C49.4585 14.2993 48.8038 14.8096 48.5097 15.363C48.1615 16.0178 48.1414 17.1599 48.4649 17.8685C48.7048 18.3926 49.395 18.9583 50.0605 19.1766C50.935 19.4625 52.2784 19.0306 52.8232 18.2881C53.3695 17.5442 53.4965 16.3667 53.1173 15.5398C52.8387 14.9311 52.0633 14.2809 51.4241 14.121ZM66.2257 15.4686L66.2248 15.4696C66.153 15.5484 66.0783 15.6258 66.0021 15.703C65.692 15.6869 65.3905 15.8056 65.1507 16.0593C64.4759 16.7771 64.6725 17.8255 65.5361 18.1052C66.457 18.4034 67.1751 17.8793 67.1751 16.9078C67.1751 16.4682 67.1194 16.3391 66.7975 16.0532C66.7208 15.9852 66.6408 15.928 66.5597 15.8797C66.4694 15.7168 66.3849 15.5488 66.3078 15.3749C66.2801 15.406 66.2536 15.438 66.2257 15.4686ZM74.4354 9.0301C73.6956 8.67042 72.2949 8.62277 71.4158 8.92712C70.0353 9.40516 69.2521 10.3305 68.9024 11.8953C68.5789 13.3356 68.9086 14.3931 70.0245 15.4998C70.9097 16.379 71.682 16.6742 72.9651 16.6204C75.0978 16.5312 76.6316 15.0802 76.8081 12.9866C76.9566 11.2343 76.1286 9.854 74.4354 9.0301ZM29.1386 12.1013C28.6449 11.8476 28.066 11.8 27.5847 11.9752C26.4131 12.3979 25.9132 13.6061 26.4642 14.679C27.0647 15.8457 28.4901 16.17 29.4296 15.3522C30.061 14.7989 30.2189 14.4038 30.1849 13.4524C30.1709 13.042 29.6432 12.361 29.1386 12.1013ZM64.0333 8.52593C63.1015 7.62518 61.7612 7.18864 60.7181 7.44534C58.9537 7.88034 57.7929 9.2745 57.8037 10.9469C57.8115 12.3856 58.6797 13.6614 60.0711 14.2809C60.698 14.5606 60.8837 14.5914 61.6761 14.5453C62.7007 14.4868 63.3337 14.1886 64.007 13.4493C64.7375 12.6469 64.9758 12.006 64.9743 10.8316C64.9743 9.63419 64.8381 9.30217 64.0333 8.52593ZM45.6994 11.0887C45.5684 11.0881 45.4449 11.1021 45.3312 11.1258C45.3314 11.143 45.3332 11.1604 45.3332 11.1776C45.3332 11.3293 45.3236 11.4799 45.3117 11.6297C45.1677 11.6817 45.0265 11.7649 44.8912 11.8784C44.5894 12.1289 44.5337 12.255 44.5337 12.693C44.5337 12.9789 44.6219 13.3586 44.7302 13.54C45.3416 14.5683 46.9667 14.0472 46.9667 12.8237C46.9667 12.4517 46.8893 12.2857 46.572 11.9721C46.3071 11.7083 46.0093 11.5728 45.7091 11.5653C45.6989 11.4073 45.6952 11.2484 45.6994 11.0887ZM34.2335 10.9696C33.9449 11.0046 33.6507 11.0107 33.3546 10.9842C33.351 10.9839 33.3475 10.9826 33.3439 10.9823C33.1134 11.0563 32.8414 11.1922 32.5861 11.4276C32.6878 11.5992 32.7898 11.7967 32.881 12.0165C32.8061 12.1622 32.7733 12.3374 32.7494 12.6254C32.703 13.1818 32.7308 13.2833 33.0017 13.5507C33.3577 13.9058 33.6796 13.9888 34.1919 13.8566C34.8961 13.6753 35.1066 12.9651 34.7336 12.0382C34.6131 11.7393 34.4429 11.5356 34.2443 11.4295C34.2408 11.2764 34.2424 11.1242 34.2511 10.9735C34.2453 10.9721 34.2394 10.9709 34.2335 10.9696ZM53.7534 10.4796C53.3479 9.20072 52.0463 8.43831 50.7555 8.72114C49.8562 8.91943 49.2619 9.43897 48.8719 10.3689C48.4107 11.4603 48.9214 12.8345 50.0234 13.477C51.1052 14.1056 52.1345 13.9565 53.06 13.0343C53.5568 12.5409 53.6806 12.3303 53.8045 11.7769C53.9345 11.1928 53.9283 11.0314 53.7534 10.4796ZM42.3328 11.1774C42.3328 9.39132 40.7402 8.2969 38.9155 8.8272C37.5767 9.21917 36.8354 11.0253 37.4746 12.338C37.7717 12.9482 38.705 13.6076 39.4742 13.749C40.9863 14.0273 42.3328 12.8175 42.3328 11.1774ZM82.5903 9.07314C82.1167 8.17239 81.0349 7.7251 80.0397 8.02022C79.8555 8.07556 79.5073 8.31074 79.2689 8.5413C78.1453 9.62958 78.6142 11.4234 80.1542 11.9276C81.0008 12.2042 82.0208 11.7908 82.5299 10.9623C82.7962 10.5288 82.8271 9.52813 82.5903 9.07314ZM136.613 5.85597C135.923 4.02527 133.832 2.76945 131.913 3.03537C130.337 3.25364 129.028 4.22202 128.356 5.66844C128.135 6.14187 128.091 6.42931 128.091 7.44073C128.091 8.57204 128.115 8.69194 128.455 9.3406C128.906 10.1906 129.794 11.036 130.673 11.4434C131.252 11.7139 131.479 11.7523 132.492 11.7523C133.51 11.7523 133.733 11.7139 134.319 11.4403C135.134 11.0622 136.112 10.1138 136.491 9.33906C136.903 8.49211 136.963 6.78285 136.613 5.85597ZM33.8898 5.00865C33.4489 4.96919 33.0497 5.09001 32.7404 5.29771L33.0724 5.77525L32.7394 5.29869C32.5459 5.4288 32.3882 5.59328 32.2765 5.77232L32.7892 6.09165L32.7873 6.09361L32.2746 5.77525C32.0195 6.18548 31.9294 6.703 32.0314 7.18931C32.1237 7.62908 32.3478 7.94312 32.5685 8.14244C32.6903 8.25239 32.8583 8.35813 33.0558 8.43931C33.5088 8.33365 34.0073 8.30543 34.5412 8.39927C34.5713 8.38443 34.6028 8.37125 34.633 8.35435L34.7921 8.25474C35.173 7.99052 35.3704 7.65838 35.464 7.38755C35.5451 7.15292 35.6017 6.80647 35.506 6.39634L35.4552 6.21665L35.4113 6.09947C35.1669 5.51942 34.5824 5.07068 33.8898 5.00865ZM67.8332 5.42857C67.7722 5.43758 67.6819 5.45334 67.5734 5.48521C67.3907 5.53887 67.2073 5.6202 67.0363 5.72544C66.9569 5.77429 66.8915 5.82129 66.8419 5.86021L66.7404 5.94615C66.5948 6.08132 66.4319 6.28879 66.3146 6.56529C66.4178 6.6689 66.5274 6.78163 66.6378 6.90611C66.6095 6.99321 66.5866 7.08588 66.5731 7.18557C66.5204 7.57292 66.5622 7.69435 66.8625 8.02791C67.1813 8.38144 67.2726 8.41833 67.8499 8.41833C68.3622 8.41833 68.5448 8.36453 68.7816 8.14473C69.1624 7.79119 69.2552 7.33313 69.0509 6.84894C69.0383 6.81934 69.0236 6.79074 69.0099 6.76255C69.1324 6.68748 69.2566 6.61653 69.383 6.54966C69.2952 6.32745 69.1962 6.16857 69.1359 6.08287C69.1225 6.06383 69.111 6.04648 69.1007 6.03306C69.0973 6.0297 69.0932 6.0263 69.089 6.02232L68.7257 6.34849L68.7238 6.34654L69.0871 6.02037C69.0688 6.00294 69.0451 5.97895 69.0158 5.95396C68.8841 5.8418 68.665 5.68535 68.3644 5.56626C68.1318 5.47412 67.9373 5.44196 67.8332 5.42857ZM57.8486 5.84675C57.8378 4.53866 56.208 3.58565 54.9389 4.14516C53.6311 4.72312 53.3804 6.55074 54.4823 7.47147C55.8459 8.61201 57.8641 7.63594 57.8486 5.84675ZM47.2453 3.97349C47.1344 3.97525 46.8923 3.98941 46.5939 4.08384C46.2588 4.18987 46.0139 4.34527 45.8703 4.45396C45.8321 4.48288 45.801 4.50953 45.7794 4.52818L46.1017 4.85435C46.0987 4.85721 46.0959 4.86024 46.0929 4.86314L45.7677 4.53697C45.8277 4.47713 45.5687 4.71113 45.3908 5.15123C45.2225 5.56746 45.2398 5.89285 45.2404 5.79087C45.242 6.18611 45.4175 6.70739 45.8849 7.09654C46.217 7.37297 46.5845 7.48777 46.9035 7.50865C46.9905 7.51429 47.0745 7.51304 47.1525 7.50572C47.1833 7.47076 47.2163 7.43759 47.2482 7.40318L47.171 6.96958C47.1727 6.96967 47.1743 6.9695 47.1759 6.96958L47.2531 7.39927C47.3765 7.26646 47.5065 7.13599 47.6476 7.01255C47.9562 6.74262 48.2849 6.52071 48.6251 6.33775L48.6505 6.27134C48.7463 5.98356 48.814 5.33388 48.3625 4.69517C47.9746 4.14688 47.4853 4.00514 47.2882 3.97349H47.2453ZM141.6 4.13748C141.145 3.2521 139.995 2.86168 139.086 3.28438C137.874 3.84543 137.528 5.29646 138.374 6.25254C139.021 6.98574 139.84 7.16251 140.727 6.76133C141.696 6.32479 142.1 5.11047 141.6 4.13748Z" fill="white"/>
</svg>
