<svg
  width="111"
  height="56"
  viewBox="0 0 111 56"
  fill="none"
  xmlns="http://www.w3.org/2000/svg"
>
  <path
    fill-rule="evenodd"
    clip-rule="evenodd"
    d="M101.158 1.39283C100.411 1.49644 99.7896 1.9561 99.471 2.64267C99.366 2.86739 99.3454 3.00383 99.3454 3.48391C99.3454 4.02091 99.3564 4.07782 99.5179 4.38572C99.7316 4.7892 100.153 5.19049 100.57 5.38384C100.844 5.51225 100.952 5.53049 101.433 5.53049C101.916 5.53049 102.021 5.51225 102.299 5.38238C102.686 5.20289 103.15 4.75272 103.329 4.38499C103.525 3.98297 103.553 3.17164 103.387 2.73168C103.06 1.86271 102.068 1.26661 101.158 1.39283ZM104.561 1.51103C103.986 1.77734 103.821 2.4661 104.223 2.91992C104.53 3.26795 104.918 3.35185 105.339 3.16142C105.798 2.95421 105.99 2.37782 105.753 1.91597C105.537 1.49571 104.991 1.31039 104.561 1.51103ZM64.6475 1.91962C64.0272 2.19395 63.9082 3.06147 64.4309 3.49851C65.0777 4.03988 66.035 3.57658 66.0276 2.7273C66.0225 2.1064 65.2495 1.65404 64.6475 1.91962ZM60.7596 2.1064C60.5431 2.14507 60.3808 2.28005 60.3147 2.47923C60.1789 2.88782 60.4058 3.20958 60.8617 3.25263C61.1105 3.2767 61.1509 3.26357 61.3029 3.11327C61.4401 2.9761 61.4702 2.90241 61.4702 2.69812C61.4702 2.29902 61.1553 2.03635 60.7596 2.1064ZM54.2803 2.70031C54.0806 2.83893 53.9808 3.1264 54.0557 3.35185C54.2165 3.83632 54.8272 3.89177 55.1055 3.44525C55.4138 2.94911 54.7648 2.36249 54.2803 2.70031ZM70.5608 2.84842C70.3237 2.9564 70.1989 3.11838 70.1658 3.3628C70.1409 3.54666 70.1607 3.6043 70.3031 3.76263C70.4543 3.93044 70.4976 3.94795 70.7715 3.94795C71.0145 3.94795 71.1011 3.92241 71.2134 3.81808C71.394 3.65027 71.438 3.43284 71.3411 3.20301C71.1906 2.84915 70.8757 2.70687 70.5608 2.84842ZM67.3887 3.4861C66.5518 3.69259 66.0012 4.35435 66.0063 5.14817C66.01 5.83109 66.4218 6.43668 67.0818 6.73071C67.3791 6.8635 67.4672 6.87809 67.8431 6.8562C68.3291 6.82848 68.6293 6.68693 68.9487 6.33599C69.2952 5.95513 69.4082 5.65088 69.4075 5.09345C69.4075 4.52508 69.3429 4.36748 68.9611 3.99902C68.5192 3.57147 67.8835 3.36426 67.3887 3.4861ZM76.5534 3.75898C76.466 3.78525 76.3008 3.89688 76.1878 4.00632C75.6548 4.52289 75.8772 5.37435 76.6077 5.61367C77.0092 5.745 77.493 5.54873 77.7345 5.15547C77.8608 4.94972 77.8755 4.47473 77.7632 4.25877C77.5385 3.83121 77.0254 3.61889 76.5534 3.75898ZM62.6632 4.09169C62.2367 4.18581 61.9548 4.43242 61.7698 4.87384C61.551 5.39186 61.7932 6.04414 62.3159 6.34912C62.8291 6.64753 63.3173 6.57676 63.7563 6.13899C63.9919 5.90478 64.0506 5.80483 64.1094 5.54216C64.171 5.26491 64.1681 5.1883 64.0852 4.92637C63.8928 4.31933 63.2754 3.95744 62.6632 4.09169ZM57.0472 4.14203C56.4122 4.32808 56.0605 5.18538 56.3637 5.80847C56.5047 6.09813 56.9474 6.41114 57.3122 6.47826C58.0294 6.61032 58.6681 6.03612 58.6681 5.25761C58.6681 4.4098 57.9127 3.89031 57.0472 4.14203ZM72.4629 4.18945C71.808 4.41637 71.4366 4.85559 71.2707 5.59835C71.1172 6.282 71.2736 6.78397 71.8029 7.3093C72.2228 7.72664 72.5891 7.86672 73.1977 7.84119C74.2093 7.79887 74.9368 7.11011 75.0205 6.11637C75.091 5.28461 74.6982 4.62941 73.8951 4.23834C73.5442 4.06761 72.8798 4.04499 72.4629 4.18945ZM103.462 5.27221C102.601 5.57792 102.079 6.35277 102.131 7.24801C102.214 8.66347 103.665 9.53025 104.954 8.93415C105.359 8.74737 105.812 8.27166 105.961 7.87694C106.14 7.4078 106.108 6.69715 105.89 6.2674C105.677 5.84714 105.412 5.59762 104.958 5.38967C104.464 5.16349 103.894 5.11826 103.462 5.27221ZM54.3214 5.49401C54.1753 5.62388 54.143 5.69684 54.1225 5.94491C54.1005 6.20903 54.1137 6.25719 54.2421 6.38414C54.411 6.55268 54.5637 6.59208 54.8067 6.52934C55.1407 6.44324 55.2405 6.10616 55.0636 5.6662C54.9168 5.30139 54.6165 5.23208 54.3214 5.49401ZM59.8816 5.59032C59.7385 5.70925 59.712 5.76908 59.712 5.97702C59.712 6.11273 59.7539 6.29294 59.8053 6.37904C60.0952 6.86715 60.8661 6.61981 60.8661 6.03903C60.8661 5.86247 60.8294 5.78367 60.6789 5.63483C60.4366 5.39332 60.1364 5.37654 59.8816 5.59032ZM51.6727 5.63629C51.117 5.83693 50.8799 6.41041 51.1412 6.91968C51.4261 7.47346 52.1022 7.62741 52.5478 7.23925C52.8473 6.97659 52.9222 6.78908 52.9061 6.33745C52.8994 6.14264 52.6491 5.81942 52.4098 5.69611C52.1756 5.57573 51.9011 5.55311 51.6727 5.63629ZM98.8785 6.14556C98.4674 6.30243 98.3 6.41406 98.0372 6.70371C97.6871 7.09114 97.5446 7.48586 97.5476 8.05861C97.549 8.4548 97.5718 8.55621 97.7216 8.86046C97.922 9.2654 98.2729 9.60029 98.7141 9.80824C98.974 9.93081 99.0892 9.95124 99.5378 9.95124C99.9944 9.95124 100.099 9.93227 100.363 9.80313C100.767 9.60613 101.096 9.27051 101.311 8.83639C101.47 8.51608 101.488 8.43218 101.485 8.01484C101.482 7.62814 101.455 7.49389 101.33 7.21664C101.147 6.81535 100.778 6.44032 100.362 6.23311C99.9724 6.0383 99.2669 5.99672 98.8785 6.14556ZM77.6347 6.37028C77.2838 6.50015 77.1039 6.62419 76.8154 6.935C76.5012 7.27355 76.3838 7.61063 76.3838 8.17754C76.3838 8.57153 76.4065 8.68681 76.5328 8.94291C76.7596 9.40111 77.0283 9.67763 77.4431 9.88047C77.7779 10.0446 77.8542 10.06 78.3079 10.0585C78.7388 10.057 78.8482 10.0366 79.1169 9.90527C79.4847 9.72652 79.8048 9.38579 80.036 8.92613C80.1799 8.64012 80.2019 8.53724 80.2019 8.15055C80.2019 7.76239 80.1799 7.66024 80.0353 7.37277C79.8422 6.98899 79.5096 6.66286 79.0941 6.45273C78.6984 6.25135 78.0568 6.21487 77.6347 6.37028ZM62.349 6.65775C62.048 6.73947 61.7375 6.9817 61.598 7.24436C61.4328 7.55518 61.4233 8.09728 61.5767 8.43364C61.6905 8.68244 62.0179 8.95094 62.3336 9.05454C62.7483 9.19025 63.3855 8.98523 63.644 8.63282C63.9031 8.27969 63.9633 7.7208 63.7834 7.32827C63.6513 7.03934 63.2835 6.73071 62.9803 6.65483C62.7036 6.58625 62.6147 6.58625 62.349 6.65775ZM66.1715 7.27209C65.8037 7.42604 65.4844 7.70767 65.27 8.0681C65.1386 8.28771 65.1232 8.36797 65.1232 8.83201C65.1232 9.30407 65.1371 9.37703 65.2847 9.64115C65.7472 10.4707 66.7764 10.7867 67.6243 10.3591C67.8857 10.227 68.2637 9.81042 68.4091 9.49669C68.5934 9.09613 68.5757 8.51535 68.3672 8.10604C68.0663 7.51651 67.5605 7.19329 66.8814 7.15681C66.5643 7.14003 66.4387 7.16046 66.1715 7.27209ZM58.2952 7.39101C57.9832 7.54569 57.8305 7.72153 57.7057 8.07175C57.5214 8.5905 57.6661 9.13991 58.061 9.42446C58.7034 9.8863 59.5351 9.71557 59.9022 9.04506C60.1085 8.66857 60.1136 8.3614 59.9183 7.98638C59.5659 7.30492 58.9353 7.07363 58.2952 7.39101ZM54.7964 7.49754C54.3596 7.64638 54.052 8.15711 54.135 8.59415C54.2209 9.05527 54.8493 9.40695 55.3404 9.26978C55.9093 9.11218 56.1274 8.5511 55.8403 7.98346C55.6171 7.54131 55.2148 7.3538 54.7964 7.49754ZM69.4912 7.57488C69.1711 7.91561 69.2643 8.41321 69.674 8.546C70.1108 8.68754 70.4514 8.43874 70.4514 7.97763C70.4514 7.76896 70.425 7.70767 70.2723 7.57196C70.0197 7.34797 69.7041 7.34943 69.4912 7.57488ZM82.6693 7.51724C82.2596 7.64857 81.9594 8.04548 81.9594 8.45844C81.9594 9.20046 82.8785 9.6718 83.5069 9.25081C84.0619 8.87943 84.0656 8.02578 83.5142 7.66316C83.2837 7.51213 82.8954 7.44501 82.6693 7.51724ZM47.4619 7.94406C47.1234 8.07394 46.8026 8.53505 46.8041 8.89038C46.8056 9.11291 46.9942 9.46313 47.1917 9.60832C47.6542 9.94905 48.428 9.74841 48.6504 9.22965C48.7928 8.89767 48.7275 8.49492 48.4882 8.24029C48.2364 7.97033 47.7562 7.83243 47.4619 7.94406ZM71.695 8.75175C71.0189 8.93853 70.6195 9.27343 70.4463 9.79583C70.2084 10.5167 70.3677 11.2317 70.8684 11.6965C71.8528 12.6114 73.3857 12.2291 73.8019 10.9661C73.9238 10.5977 73.8885 10.0468 73.7219 9.69442C73.3695 8.95021 72.4761 8.53432 71.695 8.75175ZM49.7383 8.88454C49.557 8.9575 49.2832 9.30553 49.2443 9.51274C49.1599 9.95781 49.4087 10.3897 49.8654 10.5904C50.1568 10.7181 50.4005 10.6809 50.7052 10.4612C51.0965 10.1796 51.2286 9.82866 51.084 9.44999C51.0047 9.24059 50.7676 8.99836 50.554 8.90716C50.3601 8.82544 49.9175 8.81304 49.7383 8.88454ZM101.894 9.72652C101.42 9.89433 101.013 10.2606 100.764 10.7421C100.624 11.0158 100.609 11.0938 100.609 11.6155C100.609 12.1656 100.617 12.2028 100.799 12.5363C101.006 12.9164 101.346 13.2126 101.82 13.4264C102.037 13.5249 102.193 13.5504 102.587 13.5512C103.016 13.5526 103.122 13.5337 103.385 13.4045C103.793 13.2053 104.156 12.8493 104.35 12.4567C104.494 12.1642 104.509 12.0825 104.507 11.5885C104.504 10.9202 104.392 10.6473 103.935 10.1957C103.701 9.96437 103.548 9.8666 103.274 9.77248C102.865 9.63167 102.219 9.61051 101.894 9.72652ZM45.1788 9.91476C44.9137 10.0381 44.7398 10.2416 44.6531 10.5262C44.4586 11.1733 45.1105 11.7899 45.805 11.617C46.2909 11.4951 46.5281 11.2069 46.5281 10.7385C46.5281 10.0658 45.805 9.62364 45.1788 9.91476ZM55.4277 10.1482C54.9087 10.354 54.698 11.0398 55.0086 11.5061C55.1972 11.7891 55.4365 11.9095 55.8117 11.9117C56.385 11.9154 56.7455 11.5389 56.7455 10.9377C56.7455 10.6765 56.722 10.6108 56.5678 10.4357C56.4702 10.3255 56.3109 10.2015 56.2125 10.1606C56.0077 10.076 55.6267 10.0702 55.4277 10.1482ZM52.2982 10.2132C52.1793 10.254 52.0464 10.3664 51.9414 10.5152C51.6052 10.9917 51.7623 11.6418 52.2718 11.8891C52.9105 12.1985 53.6659 11.7607 53.6688 11.0792C53.6703 10.6692 53.4163 10.3489 52.989 10.2227C52.6667 10.1271 52.5537 10.1256 52.2982 10.2132ZM97.1717 10.5393C96.3745 10.8735 95.9663 11.4411 95.9252 12.2707C95.9061 12.6516 95.9237 12.7902 96.0213 13.0499C96.1792 13.4651 96.6395 13.9612 97.0564 14.1648C97.331 14.2983 97.4301 14.3165 97.8904 14.3165C98.3463 14.3165 98.4498 14.2983 98.7155 14.1684C99.0848 13.9882 99.4695 13.6176 99.6824 13.236C99.8263 12.9762 99.8395 12.9062 99.8395 12.4057C99.8395 11.8979 99.827 11.8329 99.6596 11.4937C99.4629 11.096 99.2147 10.8523 98.7559 10.6035C98.51 10.47 98.3933 10.4437 97.9719 10.4284C97.5512 10.4138 97.433 10.4299 97.1717 10.5393ZM75.6651 10.6203C74.8333 10.9158 74.2637 11.768 74.3393 12.6034C74.3782 13.0317 74.6373 13.5701 74.9501 13.8722C75.9022 14.7922 77.4886 14.523 78.1016 13.3374C78.2932 12.966 78.3373 12.2576 78.1963 11.8125C78.0693 11.4097 77.6193 10.9121 77.1972 10.7079C76.7897 10.5087 76.0909 10.4693 75.6651 10.6203ZM80.696 10.5729C80.1762 10.7392 79.6689 11.1785 79.4428 11.6585C79.3173 11.9241 79.2953 12.0423 79.2953 12.4611C79.2953 12.8799 79.3173 12.9981 79.4421 13.2637C79.6366 13.6745 80.0147 14.0407 80.4581 14.2472C80.7672 14.391 80.8846 14.4158 81.2744 14.418C81.6848 14.4201 81.7641 14.4026 82.0952 14.2356C82.8264 13.8678 83.2228 13.2425 83.2228 12.4611C83.2228 11.8898 83.076 11.5272 82.6817 11.1303C82.2383 10.683 81.9432 10.5539 81.3273 10.54C81.0557 10.5335 80.7716 10.5481 80.696 10.5729ZM47.2468 11.7665C46.9869 11.9088 46.8577 12.1707 46.8577 12.5582C46.8577 13.1521 47.1036 13.4731 47.5896 13.5132C47.9567 13.5439 48.2767 13.3958 48.4764 13.1032C48.7385 12.7201 48.6166 12.1058 48.2224 11.8271C47.9794 11.6556 47.5037 11.6257 47.2468 11.7665ZM42.1667 11.8358C41.981 11.8913 41.7167 12.1262 41.6073 12.3356C41.5053 12.529 41.5082 12.9441 41.6117 13.1433C41.7226 13.3571 42.0265 13.5789 42.2599 13.6161C42.8245 13.7073 43.4734 13.0988 43.3736 12.5728C43.3325 12.3553 43.0733 12.0306 42.8538 11.9205C42.6497 11.8176 42.3517 11.7811 42.1667 11.8358ZM50.101 11.8979C49.8411 12.0737 49.6025 12.4268 49.5688 12.6837C49.5042 13.1849 49.9799 13.6343 50.573 13.6343C50.8212 13.6343 50.8931 13.6088 51.0612 13.4629C51.4929 13.0864 51.5883 12.61 51.3086 12.2262C51.0891 11.9249 50.9328 11.8322 50.584 11.7979C50.3374 11.7731 50.2618 11.7891 50.101 11.8979ZM84.9201 12.7223C84.6873 12.8785 84.6 13.1586 84.713 13.3914C84.8055 13.5825 85.1139 13.7985 85.2937 13.7985C85.6373 13.7985 85.9148 13.4928 85.9148 13.1149C85.9148 12.6596 85.3488 12.4363 84.9201 12.7223ZM44.2861 13.0353C44.0769 13.163 43.8941 13.5176 43.8941 13.7985C43.8941 14.1786 44.1767 14.5953 44.521 14.7251C44.8726 14.8579 45.4937 14.5843 45.6669 14.221C45.8879 13.7577 45.7037 13.3972 45.0877 13.0915C44.6957 12.8967 44.5349 12.8858 44.2861 13.0353ZM46.6433 14.3027C46.3629 14.4056 46.1338 14.7207 46.1023 15.0483C46.0663 15.4175 46.1126 15.5642 46.3431 15.8181C46.7806 16.2989 47.4809 16.2048 47.826 15.6189C47.9442 15.4197 47.9655 15.3278 47.9442 15.1082C47.917 14.8265 47.7335 14.5252 47.4927 14.3683C47.3187 14.2553 46.8694 14.221 46.6433 14.3027ZM40.2683 15.149C39.9387 15.4496 39.9232 16.1355 40.2418 16.3434C40.4224 16.4602 40.8306 16.5017 41.0237 16.4229C41.3489 16.2887 41.4502 15.8735 41.2608 15.4591C41.0486 14.9936 40.5935 14.8528 40.2683 15.149ZM99.4966 15.1301C99.3682 15.1724 99.1384 15.3008 98.985 15.4168C98.4175 15.8465 98.165 16.331 98.165 16.9913C98.165 17.6896 98.4652 18.2623 99.0246 18.6315C99.4497 18.9117 99.7543 18.9948 100.253 18.9693C100.999 18.9306 101.591 18.5505 101.912 17.9041C102.079 17.5648 102.092 17.4999 102.092 16.992C102.092 16.5222 102.073 16.4069 101.958 16.172C101.786 15.8239 101.345 15.3847 101.002 15.2198C100.666 15.06 99.8608 15.0111 99.4966 15.1301ZM80.8633 15.438C79.7284 15.6714 79.0493 16.7688 79.3481 17.8851C79.5111 18.4936 79.9567 18.9722 80.5785 19.205C81.0344 19.3757 81.7105 19.3385 82.1488 19.1181C82.5078 18.9387 82.8792 18.5578 83.0679 18.1769C83.1773 17.9566 83.1956 17.8355 83.1956 17.3459C83.1956 16.8242 83.1824 16.7469 83.0429 16.4842C82.6304 15.7065 81.7083 15.2636 80.8633 15.438ZM85.8524 15.4365C85.2563 15.5365 84.6719 15.9567 84.4018 16.4799C84.1309 17.0059 84.1316 17.7917 84.4032 18.2463C84.6249 18.6169 85.0294 18.9861 85.4046 19.1597C85.7327 19.3122 85.7885 19.321 86.2606 19.2998C86.6474 19.2816 86.8244 19.2466 87.0138 19.1503C87.8455 18.7263 88.2779 17.9106 88.1274 17.0438C88.0936 16.8476 88.0122 16.5835 87.9476 16.4565C87.6855 15.9516 87.1268 15.5445 86.5498 15.4401C86.193 15.3752 86.2158 15.3759 85.8524 15.4365ZM95.1984 15.465C94.6133 15.6255 94.0708 16.126 93.8535 16.7031C93.7059 17.0949 93.7544 17.8275 93.9541 18.2346C94.1259 18.5841 94.523 18.9664 94.9114 19.1561C95.1331 19.2648 95.2549 19.283 95.7475 19.283C96.2519 19.283 96.3576 19.2663 96.5888 19.1488C96.9691 18.9562 97.3773 18.5439 97.5498 18.1784C97.679 17.9026 97.6966 17.7997 97.6922 17.3459C97.6863 16.7133 97.5799 16.4383 97.1754 16.0129C96.674 15.4876 95.8987 15.2716 95.1984 15.465ZM43.179 15.5511C42.8847 15.6678 42.6284 16.0501 42.6284 16.3711C42.6284 16.6163 42.8142 16.9731 43.0219 17.1256C43.2069 17.2613 43.6144 17.3313 43.8603 17.27C44.2633 17.1686 44.615 16.5587 44.4997 16.1581C44.4248 15.8991 44.2494 15.6795 44.035 15.5788C43.8287 15.4817 43.3905 15.4671 43.179 15.5511ZM85.6402 20.3432C85.1403 20.4957 84.6837 20.8707 84.4282 21.3391C84.2469 21.6696 84.2388 21.7083 84.2388 22.257C84.2388 22.7808 84.2528 22.8552 84.3944 23.1223C84.5941 23.5002 84.9582 23.849 85.3539 24.0416C85.6307 24.1759 85.7298 24.1941 86.1893 24.1941C86.6034 24.1948 86.762 24.1707 86.9587 24.0803C87.3294 23.9103 87.8081 23.4455 87.9865 23.0865C88.123 22.8086 88.1392 22.7174 88.1392 22.23C88.1392 21.55 88.0356 21.3114 87.5423 20.8532C87.1033 20.4453 86.7223 20.2906 86.171 20.2972C85.9544 20.2994 85.7158 20.3206 85.6402 20.3432ZM90.434 20.3964C90.1 20.5197 89.9209 20.6394 89.639 20.9291C89.0135 21.5733 88.957 22.6612 89.509 23.409C89.7241 23.7009 90.2732 24.0839 90.6028 24.1729C90.9376 24.2634 91.6049 24.2043 91.922 24.0562C92.3324 23.8643 92.7399 23.4608 92.9226 23.0646C93.0614 22.7655 93.0812 22.659 93.079 22.23C93.0768 21.8068 93.0555 21.6952 92.9212 21.4179C92.7244 21.0093 92.4374 20.7248 91.9999 20.503C91.5491 20.2739 90.8862 20.2294 90.434 20.3964ZM95.6925 20.3403C94.8959 20.6 94.3351 21.2946 94.2771 22.095C94.2308 22.7429 94.432 23.2412 94.9275 23.7016C95.3026 24.0504 95.6205 24.1817 96.1594 24.2094C96.8091 24.2437 97.1416 24.1073 97.6474 23.6009C98.1253 23.1223 98.2442 22.8334 98.2347 22.1811C98.2288 21.8112 98.2031 21.7017 98.0504 21.4026C97.8456 21.0013 97.5307 20.6905 97.1122 20.4774C96.8678 20.3519 96.7364 20.3242 96.3238 20.3111C96.0522 20.303 95.7681 20.3162 95.6925 20.3403ZM85.8039 25.2061C85.2012 25.3483 84.6675 25.7562 84.4025 26.2772C84.2535 26.5675 84.2388 26.6449 84.2388 27.1417C84.2388 27.7918 84.3357 28.0501 84.7373 28.4762C85.6799 29.4773 87.2861 29.2547 87.952 28.0297C88.1259 27.7094 88.1377 27.6532 88.1384 27.1687C88.1392 26.7499 88.1164 26.6011 88.0195 26.3924C87.6099 25.5103 86.6629 25.004 85.8039 25.2061ZM90.6351 25.2214C89.6301 25.503 88.9658 26.5033 89.153 27.4496C89.4165 28.7819 90.793 29.4882 91.9955 28.9103C92.3243 28.752 92.7472 28.3135 92.93 27.9414C93.0614 27.6758 93.0812 27.5708 93.0797 27.1432C93.0783 26.7011 93.0599 26.612 92.9006 26.2859C92.6929 25.8569 92.4088 25.5884 91.9132 25.3542C91.5095 25.1638 91.0206 25.1127 90.6351 25.2214ZM95.7615 25.2105C95.4509 25.2834 94.8857 25.6672 94.6691 25.9532C94.2125 26.5522 94.1398 27.3285 94.4768 28.0085C94.6809 28.4193 94.987 28.7112 95.4539 28.941C95.7292 29.0767 95.8415 29.0993 96.2423 29.1022C96.6534 29.1051 96.7511 29.0862 97.066 28.9373C97.4712 28.7462 97.8111 28.4251 98.0372 28.0187C98.1811 27.7627 98.1921 27.6977 98.1921 27.1417C98.1921 26.5785 98.1826 26.5238 98.0291 26.2494C97.8309 25.8941 97.4367 25.5315 97.033 25.3352C96.6931 25.1703 96.1542 25.1171 95.7615 25.2105ZM80.7231 30.1376C79.7827 30.4331 79.2123 31.2444 79.2806 32.1907C79.3305 32.8816 79.7541 33.4909 80.4082 33.8097C80.6908 33.9469 80.7811 33.9629 81.273 33.9622C81.7663 33.9622 81.8522 33.9462 82.1128 33.8112C82.9365 33.3814 83.319 32.6336 83.2 31.6843C83.065 30.6125 81.7758 29.807 80.7239 30.1376M85.6681 30.1376C85.119 30.3112 84.6279 30.7147 84.3687 31.2072C84.2564 31.4195 84.2395 31.5304 84.2395 32.0258C84.2395 32.727 84.3364 32.975 84.7857 33.4208C85.1865 33.8207 85.4875 33.9498 86.08 33.9783C86.4646 33.9972 86.6027 33.9797 86.8677 33.8812C87.35 33.7003 87.7104 33.38 87.9417 32.9269C88.1208 32.5745 88.1362 32.5066 88.137 32.0528C88.1384 31.6362 88.1164 31.5158 87.9945 31.2553C87.5724 30.3586 86.541 29.8625 85.6674 30.1376M95.6895 30.1405C95.2982 30.2835 95.0508 30.4389 94.8203 30.6884C93.8939 31.6858 94.1743 33.2092 95.3937 33.8039C95.6881 33.9476 95.7739 33.9629 96.2702 33.9629C96.7599 33.9629 96.8524 33.9469 97.1313 33.8112C97.5373 33.6127 97.955 33.1604 98.1084 32.754C98.2509 32.3753 98.2655 31.7289 98.14 31.3757C97.9499 30.846 97.3736 30.3061 96.8201 30.1405C96.4963 30.0442 95.9545 30.0442 95.6895 30.1405ZM100.521 30.1835C100.129 30.32 99.8799 30.5031 99.5987 30.8635C99.1487 31.4392 99.0782 32.2286 99.4166 32.9123C99.6288 33.3391 99.9151 33.6083 100.406 33.8404C100.729 33.9921 100.785 34.0016 101.257 33.9804C101.703 33.9607 101.804 33.9359 102.107 33.7754C102.518 33.5573 102.794 33.2683 102.992 32.851C103.116 32.5876 103.136 32.4723 103.136 32.0258C103.136 31.5793 103.116 31.4647 102.991 31.1991C102.569 30.3054 101.468 29.853 100.521 30.1835ZM104.713 32.6715C104.192 32.8568 103.676 33.3887 103.52 33.9046C103.401 34.2956 103.415 34.8538 103.553 35.2179C103.705 35.6228 104.168 36.1204 104.541 36.2795C105.151 36.5392 105.786 36.5407 106.322 36.2824C106.659 36.1211 107.054 35.7177 107.219 35.3653C107.347 35.0946 107.366 34.9851 107.366 34.5094C107.366 34.0228 107.349 33.9294 107.214 33.6558C107.043 33.3107 106.649 32.9167 106.289 32.7299C105.949 32.5548 105.13 32.5249 104.713 32.6715ZM75.7679 35.0486C75.1974 35.2339 74.7482 35.6294 74.4993 36.1664C74.2967 36.6034 74.2982 37.271 74.5022 37.7139C74.6968 38.1363 75.0227 38.4683 75.4603 38.6887C75.7994 38.8601 75.8699 38.8747 76.3265 38.8747C76.7611 38.8747 76.8632 38.8558 77.1406 38.72C77.5363 38.5274 77.9401 38.14 78.1156 37.7832C78.2345 37.5439 78.2514 37.4366 78.2514 36.9106C78.2514 36.3853 78.2359 36.2802 78.1229 36.0708C77.9364 35.7228 77.5004 35.3149 77.1399 35.1508C76.7611 34.9786 76.1298 34.9311 75.7679 35.0486ZM80.4427 35.1332C80.0455 35.3317 79.5875 35.7906 79.4157 36.1598C79.3188 36.3692 79.296 36.5188 79.296 36.9376C79.296 37.4024 79.3122 37.4884 79.456 37.7708C79.655 38.1604 80.0492 38.5354 80.4647 38.7281C80.7341 38.8543 80.8487 38.8747 81.2737 38.8725C81.6973 38.8711 81.8118 38.8492 82.079 38.72C82.4821 38.5274 82.8425 38.1706 83.0393 37.7723C83.1802 37.4884 83.1956 37.4002 83.1956 36.9106C83.1949 36.4196 83.1795 36.3357 83.0407 36.0737C82.8609 35.733 82.4835 35.3653 82.0967 35.1544C81.8639 35.0267 81.7435 35.0012 81.3009 34.9844C80.8068 34.9654 80.7606 34.9735 80.4427 35.1332ZM100.589 35.0355C100.118 35.1705 99.6046 35.6374 99.3623 36.1518C99.2111 36.4728 99.1986 36.5407 99.2177 36.9792C99.2331 37.3527 99.2691 37.5235 99.3843 37.7679C99.5649 38.1546 99.9268 38.5106 100.345 38.7142C100.626 38.8514 100.727 38.8703 101.186 38.8725C101.65 38.8747 101.742 38.8579 102.022 38.7215C102.435 38.5201 102.807 38.1539 102.989 37.7679C103.118 37.4943 103.136 37.3892 103.136 36.9106C103.135 36.4203 103.12 36.3349 102.983 36.0766C102.755 35.6454 102.483 35.3791 102.053 35.1653C101.701 34.9902 101.626 34.9735 101.22 34.9778C100.974 34.9808 100.691 35.0063 100.589 35.0355Z"
    fill="#528E96"
  />
  <path
    fill-rule="evenodd"
    clip-rule="evenodd"
    d="M80.2283 45.6469C79.9623 45.8011 79.3595 46.5939 79.3595 46.7908C79.3595 46.9618 79.5804 47.1056 79.7618 47.0499C80.0401 46.967 80.6988 46.0783 80.6988 45.7868C80.6988 45.5536 80.4942 45.494 80.2283 45.6469ZM89.4354 45.9565C89.2936 45.976 89.2486 46.0459 89.2254 46.2882C89.2077 46.4566 89.2227 46.5771 89.2582 46.5563C89.2936 46.5356 89.3223 46.5576 89.3223 46.603C89.3223 46.6496 89.4545 46.6872 89.6155 46.6872C89.7764 46.6872 89.9087 46.6496 89.9087 46.603C89.9087 46.5576 89.9523 46.5447 90.0055 46.5758C90.0601 46.6082 90.0792 46.5978 90.0505 46.5538C90.0233 46.511 89.9905 46.3529 89.981 46.204C89.9605 45.9215 89.8978 45.8943 89.4354 45.9565ZM3.45308 46.0343C3.49126 46.0938 3.41898 46.1081 3.22259 46.077C2.99756 46.042 2.91709 46.0653 2.85299 46.1819C2.73161 46.3983 2.71661 51.8834 2.83663 52.0972C2.90755 52.2216 2.9962 52.2566 3.19668 52.2384L3.46399 52.2138L3.5049 49.1253C3.52945 47.3207 3.51581 46.0174 3.47217 45.9915C3.42989 45.9669 3.42171 45.9863 3.45308 46.0343ZM52.4744 46.0083C52.4526 46.0278 52.2985 46.0524 52.1307 46.0641C51.963 46.0744 51.828 46.1029 51.8293 46.1275C51.8321 46.1508 51.8293 46.5369 51.8239 46.9852L51.8143 47.8L51.1242 47.8039C50.2214 47.8091 49.6649 47.9853 49.4099 48.3493C49.2299 48.6045 49.219 48.6952 49.219 50.0192C49.219 51.2655 49.2367 51.4456 49.3826 51.6723C49.6963 52.1607 49.8695 52.2112 51.2838 52.2319L52.5617 52.2514L52.559 49.1111C52.5576 47.3842 52.5467 45.9721 52.5344 45.9721C52.5221 45.9721 52.4949 45.9876 52.4744 46.0083ZM44.1373 46.2856C43.6327 46.5654 43.3286 46.9152 43.199 47.3634C43.0886 47.7469 43.0804 50.4156 43.1868 50.8561C43.4432 51.9068 44.7906 52.5506 45.8517 52.1296C46.3127 51.9469 46.7695 51.4831 46.9591 51.0012C47.1037 50.6346 47.1255 50.3846 47.1241 49.1292C47.1214 47.7547 47.1105 47.6575 46.9073 47.2041C46.79 46.9424 46.6904 46.6846 46.6863 46.6328C46.6822 46.5797 46.6577 46.5434 46.6304 46.5512C46.6031 46.5576 46.3931 46.4579 46.1626 46.3283C45.8258 46.1379 45.6294 46.0874 45.1589 46.0679C44.6324 46.0472 44.5274 46.0692 44.1373 46.2856ZM66.0895 46.0951C66.039 46.1172 66.0158 46.4605 66.0322 46.9657L66.0581 47.8H65.8113C65.6762 47.8 65.529 47.8454 65.484 47.8998C65.3762 48.0293 65.2903 48.3687 65.3762 48.3182C65.413 48.2962 65.4649 48.3325 65.4921 48.3972C65.5194 48.4659 65.6462 48.5164 65.7922 48.5164H66.0445L66.0663 50.3651L66.0895 52.2138L66.3909 52.2371L66.6923 52.2617L66.7469 51.7681C66.7769 51.4974 66.8014 50.6514 66.8014 49.8897V48.5035L67.3797 48.5294C67.6974 48.5436 67.9402 48.5294 67.9184 48.497C67.8966 48.4633 67.9157 48.4361 67.9593 48.4361C68.0029 48.4361 68.0643 48.3402 68.0957 48.2211C68.1761 47.914 67.9702 47.8 67.3292 47.8H66.8014L66.7905 47.1847C66.7755 46.2506 66.7237 46.0938 66.4236 46.0757C66.2859 46.0666 66.1359 46.0757 66.0895 46.0951ZM75.1426 46.1729C75.1139 46.2441 75.0894 47.4723 75.0894 48.8999C75.0907 51.3367 75.1003 51.5142 75.2544 51.7526C75.564 52.2345 76.355 52.4276 76.4136 52.035C76.4327 51.9119 76.3441 51.7746 76.1286 51.5855L75.8149 51.3134L75.7658 48.7017L75.7181 46.0913L75.4562 46.0666C75.2748 46.0498 75.178 46.0822 75.1426 46.1729ZM44.7115 46.7947C44.3801 46.91 44.0405 47.2028 43.9355 47.4645C43.8946 47.5668 43.8605 48.339 43.8605 49.1771C43.8605 50.9079 43.9232 51.1463 44.4469 51.4028C44.8343 51.5933 45.6185 51.5557 45.8749 51.3342C46.2881 50.9805 46.329 50.7939 46.3481 49.2225C46.3658 47.835 46.3549 47.7223 46.1804 47.3958C45.8953 46.8608 45.2652 46.603 44.7115 46.7947ZM86.6642 47.7689C86.6914 47.8104 86.3177 47.8298 85.7709 47.8143C84.7193 47.7845 84.257 47.87 83.8942 48.1589C83.5614 48.4258 83.4619 48.8636 83.4646 50.0425C83.4674 51.9392 83.6787 52.1995 85.2771 52.2838L86.0163 52.3226L86.0409 52.7061C86.0818 53.3448 86.0013 53.3914 84.7916 53.4303C83.6856 53.4665 83.4619 53.5223 83.4619 53.7606C83.4619 54.0884 83.6719 54.1609 84.6198 54.1609C85.5335 54.1609 86.0859 54.069 86.3082 53.8811C86.3778 53.8228 86.4719 53.7645 86.5182 53.7503C86.5646 53.736 86.5932 53.6997 86.5823 53.6699C86.5728 53.6401 86.6205 53.4873 86.6901 53.3305C86.7924 53.0947 86.8142 52.5843 86.8087 50.4247C86.8046 48.6058 86.7746 47.7884 86.7105 47.7508C86.6587 47.721 86.6382 47.7288 86.6642 47.7689ZM6.24619 47.8946C6.10981 47.9905 6.10026 48.1692 6.12072 50.106L6.14254 52.2138L6.44531 52.2371C6.72626 52.2604 6.75217 52.2436 6.80127 52.0091C6.82991 51.8705 6.85446 51.0258 6.85446 50.1332V48.5087L7.40272 48.532L7.95234 48.5566L7.95097 50.1527C7.94961 52.0545 7.97825 52.2034 8.34648 52.2384C8.51287 52.254 8.62743 52.2242 8.65062 52.1594C8.67107 52.1011 8.70517 51.2668 8.72563 50.3055L8.76518 48.5566L9.13886 48.5683C9.86578 48.5916 9.86715 48.5942 9.87806 49.97C9.88351 50.6359 9.91215 51.4119 9.94079 51.6969L9.99398 52.2138H10.5804L10.6473 51.259C10.7318 50.0361 10.6745 48.8701 10.5122 48.5009C10.4427 48.3415 10.41 48.1848 10.4413 48.1524C10.4713 48.12 10.4536 48.1161 10.4018 48.1446C10.3104 48.1939 10.0854 48.019 10.1549 47.9529C10.2136 47.8972 9.88488 47.8778 8.11054 47.8337C6.76308 47.7987 6.36212 47.813 6.24619 47.8946ZM12.7516 47.9037C12.7244 47.971 12.7148 48.1278 12.7298 48.2509L12.7571 48.4763L13.8632 48.5164C14.5028 48.5398 15.0074 48.5929 15.0606 48.6447C15.1111 48.6926 15.1738 48.9284 15.2011 49.1694L15.2474 49.6072L14.421 49.6448C13.8932 49.6694 13.5004 49.7303 13.3326 49.8119C13.1894 49.8832 13.0449 49.9156 13.0121 49.8845C12.9794 49.8534 12.9644 49.8638 12.978 49.9078C12.9917 49.9519 12.9289 50.0931 12.8389 50.2226C12.7148 50.3988 12.6739 50.5931 12.6739 50.9934C12.6739 51.4922 12.693 51.5479 12.9508 51.8005C13.3258 52.1685 13.6872 52.2527 14.8751 52.2527H15.8843L15.9403 51.8329C15.9703 51.6023 15.9825 50.8069 15.9662 50.0646C15.9362 48.5838 15.8489 48.2638 15.4084 47.9892C15.0879 47.7897 12.828 47.7158 12.7516 47.9037ZM19.1616 47.8855C19.0007 47.9231 18.8138 47.9361 18.7457 47.9127C18.6788 47.8907 18.6502 47.8972 18.6829 47.9283C18.7156 47.9594 18.6638 48.0371 18.567 48.1019C18.2288 48.3273 18.1578 48.6667 18.1578 50.0438C18.1578 51.4546 18.2274 51.7319 18.6597 52.0272C18.8752 52.1749 19.7576 52.3278 20.4082 52.3317L20.7764 52.333L20.7246 52.745C20.6482 53.3577 20.5718 53.3992 19.4739 53.4277C18.2192 53.4601 18.1578 53.4756 18.1578 53.7554C18.1578 54.1363 18.2942 54.1765 19.4712 54.148C20.6277 54.1195 20.906 54.043 21.1896 53.679C21.4624 53.3279 21.5019 52.9237 21.5047 50.4506C21.506 48.3726 21.4883 48.0332 21.3751 47.9257C21.2701 47.8259 21.0587 47.8026 20.3495 47.8091C19.8572 47.813 19.3225 47.848 19.1616 47.8855ZM24.6319 47.9542C24.4396 48.0371 24.2582 48.0811 24.2269 48.0526C24.1969 48.0229 24.1846 48.0358 24.1996 48.0799C24.2146 48.1252 24.1409 48.2496 24.0373 48.3558C23.7536 48.646 23.5995 49.2471 23.5995 50.0684C23.5995 51.0647 23.7345 51.6528 24.0264 51.9301C24.3196 52.2099 24.5569 52.2527 25.783 52.2527C26.8563 52.2527 26.9641 52.2099 26.8836 51.8083C26.855 51.6671 26.7868 51.6153 26.6245 51.6075C26.5031 51.6023 26.3667 51.5907 26.3203 51.5803C26.274 51.5699 25.8894 51.557 25.4639 51.5492C24.7288 51.5388 24.6851 51.5272 24.5474 51.329C24.4683 51.215 24.4014 50.961 24.3987 50.7654L24.3946 50.4092L25.487 50.4208C26.0885 50.4273 26.6436 50.4092 26.7213 50.3794C26.8413 50.3366 26.8645 50.2161 26.8645 49.6578C26.8645 48.9699 26.7172 48.5242 26.4117 48.2832C26.3394 48.2262 26.3053 48.1394 26.3353 48.0902C26.364 48.0397 26.3613 48.0229 26.3272 48.0526C26.2931 48.0811 26.1076 48.0371 25.9153 47.9542C25.7243 47.8713 25.4352 47.8039 25.2743 47.8039C25.1134 47.8039 24.8242 47.8713 24.6319 47.9542ZM29.1503 47.8609C29.0371 47.9335 28.9662 51.9923 29.0739 52.1607C29.108 52.2112 29.2648 52.2527 29.423 52.2527H29.7108L29.7258 51.478C29.734 51.0517 29.749 50.22 29.7599 49.6293L29.779 48.5566H30.5373C30.9819 48.5579 31.3351 48.5942 31.3897 48.6473C31.5697 48.8183 31.6324 49.3676 31.6352 50.8017L31.6365 52.2527H31.927C32.1275 52.2527 32.2434 52.206 32.3034 52.0998C32.4221 51.8899 32.4153 49.457 32.2939 48.8675C32.2421 48.6084 32.148 48.3402 32.0852 48.2716C32.0225 48.2016 31.9993 48.1187 32.0348 48.0863C32.0689 48.0526 32.0593 48.0345 32.0129 48.0449C31.9679 48.0565 31.8166 48.0164 31.6788 47.9555C31.3951 47.8324 29.3167 47.7547 29.1503 47.8609ZM35.2793 47.9063C34.5606 48.2185 34.2633 48.7729 34.5142 49.3313C34.6629 49.6643 34.8974 49.8625 35.5943 50.2446C35.9053 50.4156 36.1331 50.5815 36.099 50.6139C36.0649 50.6449 36.099 50.6488 36.1753 50.6216C36.2654 50.5879 36.4222 50.6657 36.6295 50.8457C36.9445 51.1204 36.9445 51.1204 36.7959 51.3354C36.71 51.4598 36.5981 51.5324 36.5313 51.5078C36.4672 51.4844 36.3936 51.4974 36.369 51.5363C36.3008 51.6399 35.7757 51.5505 35.1293 51.3238C34.521 51.11 34.3164 51.1476 34.3164 51.4741C34.3164 52.0117 35.9353 52.447 36.7877 52.1374C37.2869 51.956 37.606 51.5609 37.6265 51.0971C37.6346 50.904 37.6114 50.7641 37.576 50.7862C37.5392 50.8069 37.486 50.7538 37.4573 50.667C37.3851 50.4532 36.9159 50.1203 36.1167 49.7161C35.7471 49.5295 35.3789 49.3196 35.2957 49.2497C35.0979 49.08 35.1443 48.8468 35.4157 48.6551C35.6216 48.5087 35.6803 48.5061 36.4045 48.5993C37.0782 48.6861 37.1887 48.6836 37.3019 48.5773C37.4601 48.427 37.3373 48.1576 37.0782 48.0786C36.9855 48.0501 36.9254 48.0021 36.9459 47.971C36.9855 47.9101 36.9895 47.9101 36.1167 47.8428C35.7075 47.8104 35.4539 47.8298 35.2793 47.9063ZM55.6985 47.9529C54.8966 48.2988 54.6238 48.9129 54.677 50.255C54.7179 51.2616 54.887 51.6528 55.4312 51.9949C55.7285 52.1827 55.8649 52.2138 56.3777 52.2138C56.8905 52.2138 57.0255 52.1827 57.3242 51.9949C57.8738 51.649 58.0388 51.2629 58.077 50.2239C58.1179 49.146 58.0211 48.7691 57.5888 48.3234C57.0841 47.8039 56.3695 47.6627 55.6985 47.9529ZM60.3737 47.8972C60.2496 48.0397 60.135 50.9351 60.2237 51.7163L60.2837 52.2527H60.9151L60.9697 51.2862C60.9997 50.7551 61.0242 49.9143 61.0242 49.4181V48.5164H61.548C62.2681 48.5177 62.6499 48.6304 62.7686 48.8779C62.8313 49.0074 62.8654 49.6034 62.8654 50.5413C62.8654 51.3445 62.8886 52.0583 62.9172 52.127C62.9486 52.2073 63.07 52.2527 63.2459 52.2527C63.5132 52.2527 63.5282 52.2371 63.5814 51.8964C63.6128 51.6995 63.6223 50.904 63.6046 50.1267C63.5678 48.611 63.5241 48.4361 63.0823 48.0436C62.8763 47.8609 62.7945 47.848 61.6693 47.8156C60.6956 47.7884 60.4569 47.8026 60.3737 47.8972ZM70.5042 47.9736C69.8236 48.2858 69.5645 48.8662 69.5645 50.0672C69.5645 51.2331 69.7909 51.7526 70.4428 52.0752C71.1029 52.4016 71.7685 52.3304 72.3276 51.8757C72.7941 51.4974 72.91 51.2072 72.97 50.277C73.0709 48.6978 72.4463 47.7923 71.2625 47.8052C71.0361 47.8065 70.706 47.8803 70.5042 47.9736ZM79.0649 47.9646C78.6067 48.19 78.2984 48.5255 78.1771 48.931C78.0448 49.3702 78.0489 50.6786 78.1825 51.1398C78.3325 51.6503 78.889 52.1451 79.3963 52.2164C79.9023 52.2889 80.4724 52.2021 80.7233 52.013C80.8365 51.9301 80.9524 51.8783 80.9811 51.8977C81.0097 51.9184 81.0166 51.9119 80.9947 51.8847C80.9729 51.8562 81.0343 51.7293 81.1297 51.601C81.6889 50.8548 81.6766 49.1823 81.1066 48.4348C80.651 47.8376 79.7482 47.629 79.0649 47.9646ZM89.3318 47.9101C89.2636 47.9866 89.2432 48.6356 89.2582 50.1164L89.2813 52.2138L89.5814 52.2371L89.8828 52.2617L89.9373 51.5298C90.0083 50.5944 90.0083 48.9206 89.9387 48.2897C89.8869 47.822 89.8746 47.8 89.6564 47.8C89.5295 47.8 89.3836 47.8493 89.3318 47.9101ZM92.95 47.9516C92.7591 48.0358 92.5791 48.0902 92.5531 48.0721C92.5259 48.0539 92.5204 48.0604 92.5409 48.0876C92.5613 48.1148 92.5054 48.2664 92.4154 48.4245C92.2736 48.6771 92.2531 48.8779 92.2531 50.027C92.2531 51.1541 92.2749 51.3808 92.4086 51.6153C92.6895 52.114 92.9146 52.2099 93.8761 52.2397C94.8185 52.2695 94.9985 52.197 94.9003 51.8277C94.8416 51.6049 94.5866 51.5375 93.8051 51.5375C92.9978 51.5375 92.965 51.478 92.965 50.0218C92.965 48.5721 92.9487 48.5968 93.9524 48.5372C94.3452 48.5138 94.7148 48.4659 94.7748 48.4309C94.8348 48.396 94.888 48.2457 94.8935 48.098L94.903 47.8285L94.1011 47.8143C93.4628 47.8013 93.2282 47.8298 92.95 47.9516ZM96.5723 47.8907C96.5519 47.9503 96.5205 48.1122 96.5028 48.2483L96.4714 48.4983L97.3975 48.51C98.9127 48.5281 98.8854 48.5151 98.989 49.2419L99.0422 49.6111L98.2226 49.6448C97.6266 49.6694 97.3225 49.72 97.1097 49.8288C96.9474 49.913 96.7824 49.9816 96.7401 49.9842C96.6992 49.9855 96.6528 50.0412 96.6405 50.106C96.6269 50.1721 96.5546 50.3833 96.481 50.575C96.3282 50.9753 96.3719 51.2836 96.6364 51.6671C96.9706 52.1503 97.1847 52.2138 98.4885 52.2138H99.66L99.7296 51.7759C99.7678 51.5363 99.7869 50.7667 99.7719 50.0672C99.7487 48.9893 99.7187 48.747 99.5782 48.4815C99.2755 47.9127 99.0995 47.848 97.7766 47.813C96.8438 47.7884 96.601 47.8039 96.5723 47.8907ZM102.689 47.9127C101.784 48.2314 101.539 49.1331 102.197 49.7303C102.322 49.8443 102.764 50.1216 103.179 50.3444C104.086 50.8328 104.35 51.0776 104.221 51.3082C104.172 51.395 104.049 51.4935 103.948 51.5272C103.713 51.6062 102.955 51.544 103.016 51.4507C103.041 51.4119 103.007 51.4002 102.939 51.4261C102.87 51.4507 102.637 51.3963 102.42 51.3057C101.931 51.0997 101.823 51.0984 101.756 51.2992C101.662 51.579 101.8 51.7746 102.243 51.9923C102.611 52.1736 102.785 52.206 103.389 52.2099C103.994 52.2125 104.147 52.1853 104.416 52.0272C104.806 51.7966 104.979 51.4922 104.979 51.0401C104.979 50.676 104.817 50.4662 104.289 50.1475C104.163 50.0723 104.084 49.9726 104.114 49.9259C104.144 49.8793 104.128 49.8664 104.076 49.8961C103.962 49.9648 102.87 49.4 102.932 49.3054C102.958 49.2652 102.928 49.2523 102.864 49.2756C102.798 49.2989 102.7 49.229 102.632 49.1072C102.521 48.9103 102.528 48.8844 102.746 48.7069C103.014 48.4879 103.142 48.4802 103.888 48.6317C104.534 48.7639 104.751 48.6952 104.712 48.3713C104.66 47.9386 103.417 47.6562 102.689 47.9127ZM19.3907 48.5734C19.2625 48.5916 19.0975 48.6952 19.0225 48.8027C18.7416 49.2108 18.7797 50.9688 19.0771 51.3173C19.2107 51.4741 19.3294 51.5026 19.9922 51.5375L20.7532 51.5777V48.5164L20.1872 48.5281C19.8763 48.5346 19.5176 48.5553 19.3907 48.5734ZM24.7847 48.6434C24.6797 48.7134 24.6128 48.8209 24.6374 48.8818C24.6619 48.9414 24.6387 48.9828 24.5869 48.9725C24.4846 48.9517 24.336 49.4466 24.3946 49.6085C24.4205 49.6798 24.6592 49.7018 25.2497 49.6876L26.0694 49.6694L26.0953 49.4155C26.1649 48.7341 25.3616 48.2599 24.7847 48.6434ZM50.31 48.6551C49.9513 48.8274 49.8859 49.0567 49.9022 50.106C49.9159 50.9792 49.9991 51.3445 50.2091 51.4507C50.2909 51.4922 50.6769 51.535 51.0656 51.544L51.772 51.5622L51.7952 50.0387L51.8184 48.5164H51.2088C50.7969 48.5164 50.5064 48.5618 50.31 48.6551ZM55.9508 48.6291C55.5812 48.782 55.4135 49.2277 55.4162 50.049C55.4189 50.768 55.603 51.2979 55.9044 51.452C56.1786 51.5907 56.7091 51.5544 56.9423 51.3808C57.1973 51.1904 57.3405 50.6968 57.3392 50.0114C57.3392 49.4479 57.2042 48.8857 57.0855 48.9556C57.0419 48.9815 57.0282 48.9504 57.0528 48.8895C57.0814 48.817 56.9955 48.7302 56.8087 48.646C56.4622 48.4905 56.2945 48.4879 55.9508 48.6291ZM70.8192 48.6551C70.4401 48.8351 70.3283 49.1499 70.3214 50.049C70.3146 51.1372 70.5792 51.5375 71.3034 51.5375C71.5843 51.5375 71.7098 51.4922 71.8653 51.3316C72.2608 50.9274 72.3522 49.6021 72.0303 48.9569C71.8189 48.5346 71.3307 48.4128 70.8192 48.6551ZM79.2954 48.6758C79.144 48.7626 78.979 48.9323 78.9272 49.0528C78.7976 49.3585 78.8058 50.7395 78.9381 50.9831C79.1686 51.4041 79.369 51.5375 79.7741 51.5375C80.5065 51.5375 80.7383 51.1619 80.7342 49.9868C80.7315 49.4738 80.6906 49.2005 80.5897 49.0178C80.3074 48.51 79.8082 48.3778 79.2954 48.6758ZM84.6525 48.6058C84.2734 48.7095 84.2147 48.9077 84.2175 50.0918C84.2202 51.4417 84.2502 51.4831 85.299 51.5375L86.0572 51.5777V48.5164L85.4926 48.5229C85.1817 48.5268 84.8039 48.5644 84.6511 48.6058M14.2218 50.4066C13.5222 50.4636 13.2249 50.7836 13.4786 51.2111C13.6245 51.4585 13.8427 51.5194 14.6201 51.5298L15.227 51.5375V50.3768L14.871 50.3794C14.676 50.382 14.3828 50.3936 14.2218 50.4066ZM97.7439 50.426C97.1833 50.5245 97.0142 50.9779 97.4016 51.3458C97.5952 51.5298 97.6607 51.5427 98.3017 51.5207L98.9931 51.4974V50.4014L98.5322 50.3846C98.2785 50.3755 97.9239 50.3936 97.7439 50.426Z"
    fill="black"
  />
  <path
    fill-rule="evenodd"
    clip-rule="evenodd"
    d="M19.2847 18.5346C18.9052 18.796 18.7181 19.134 18.7195 19.5596C18.7195 20.4245 19.7092 21.0335 20.4724 20.638C20.6021 20.5709 20.7222 20.523 20.7399 20.5326C20.7577 20.5422 20.7659 20.5381 20.7577 20.523C20.7509 20.508 20.8355 20.3602 20.9461 20.1959C21.2928 19.6855 21.1795 18.9793 20.6922 18.5948C20.5775 18.5058 20.5024 18.4141 20.5229 18.3922C20.5447 18.3704 20.3454 18.3457 20.0806 18.3361C19.6847 18.3225 19.5427 18.358 19.2847 18.5346ZM39.7444 18.5702C39.5778 18.7097 39.4249 18.8069 39.4058 18.7877C39.3676 18.7494 39.3553 18.8206 39.2884 19.4583C39.2529 19.7895 39.2802 19.9373 39.414 20.1521C39.8987 20.9322 40.9526 20.9568 41.4631 20.2028C41.8099 19.691 41.7075 18.9752 41.2338 18.6016C41.1136 18.5086 41.0317 18.4155 41.0508 18.3964C41.07 18.3786 40.8515 18.3526 40.5662 18.3402C40.0966 18.3197 40.0188 18.3416 39.7444 18.5702ZM7.62618 18.7193C7.61662 18.7289 6.6023 18.7426 5.37093 18.7508C4.10678 18.759 3.15253 18.7973 3.17847 18.8384C3.20441 18.8794 3.19076 18.9123 3.14844 18.9123C3.10612 18.9123 3.001 19.0724 2.91227 19.2667C2.75937 19.6089 2.75391 19.9578 2.75391 28.7436V37.8661L2.98325 38.1686C3.34912 38.6489 3.63034 38.6763 7.4801 38.6147C11.2903 38.5531 11.5073 38.5449 11.4609 38.4683C11.4418 38.4381 11.5483 38.3861 11.6985 38.3547C12.1872 38.2507 13.136 37.6992 13.566 37.2667C14.0711 36.759 14.4738 36.0241 14.6718 35.2413C14.8056 34.7144 14.8192 34.1096 14.8206 28.6985C14.822 23.2231 14.8097 22.6825 14.6691 22.1064C14.2186 20.2425 12.9189 19.1121 10.9108 18.837C10.3347 18.7576 7.68078 18.6632 7.62618 18.7193ZM46.8951 18.8001C46.745 18.8753 46.547 19.0396 46.4569 19.1668C46.3054 19.3817 46.2917 19.5719 46.2712 21.897L46.2494 24.3973L45.6474 24.4055C45.1805 24.4123 44.9934 24.4534 44.8091 24.5889C44.4624 24.8434 44.2604 25.2772 44.3232 25.6317C44.3518 25.7945 44.3791 25.9738 44.3832 26.0313C44.3873 26.0887 44.4092 26.1175 44.4324 26.0942C44.4556 26.0723 44.5252 26.1271 44.5894 26.2174C44.7354 26.4268 45.1969 26.5554 45.8084 26.5554L46.2903 26.5568L46.2917 32.2046C46.2917 37.7074 46.2958 37.8606 46.4596 38.1289C46.5511 38.2808 46.6835 38.4258 46.7518 38.4532C46.82 38.4792 46.8624 38.5257 46.8432 38.5545C46.7873 38.6475 47.4084 38.6503 47.6937 38.5586C47.8425 38.5107 48.035 38.3807 48.1224 38.2698C48.2084 38.159 48.2999 38.0892 48.3244 38.1138C48.349 38.1384 48.3668 38.1083 48.364 38.0481C48.3613 37.9865 48.3654 35.3768 48.3722 32.247L48.3859 26.5568H49.9312C50.8213 26.5568 51.5763 26.5184 51.7114 26.4664C52.0595 26.3351 52.3148 26.0614 52.4077 25.7233C52.4773 25.4729 52.4595 25.3607 52.3025 25.05C51.9831 24.4151 51.792 24.3603 49.9777 24.3849L48.4282 24.4068L48.3859 21.8902C48.3477 19.5733 48.3313 19.3557 48.1797 19.1326C48.0146 18.8876 47.5968 18.6591 47.3197 18.6632C47.2378 18.6632 47.0467 18.7262 46.8951 18.8001ZM69.0231 18.8288C68.8729 18.9205 68.6736 19.1189 68.5808 19.2695C68.4142 19.5391 68.4128 19.6472 68.4401 27.6899C68.4647 35.3234 68.477 35.8667 68.6203 36.2992C69.0053 37.4569 69.7644 38.1863 70.9534 38.5394C71.6892 38.7597 72.2435 38.5312 72.4428 37.925C72.5943 37.461 72.4278 37.1134 71.8899 36.7768C71.6401 36.6208 71.464 36.462 71.4967 36.4237C71.5309 36.3868 71.509 36.3854 71.449 36.4196C71.3029 36.5044 71.0394 36.2581 70.8251 35.838C70.5561 35.3097 70.5207 34.2642 70.5152 26.5568C70.5097 19.5897 70.507 19.4542 70.3405 19.1805C70.1766 18.9095 69.7466 18.6605 69.4449 18.6618C69.363 18.6618 69.1732 18.7371 69.0231 18.8288ZM4.88902 20.9021C4.8508 24.0209 4.86718 36.473 4.91087 36.488C4.94499 36.5003 6.26511 36.4908 7.84324 36.4675C10.6091 36.4264 10.7306 36.4182 11.1292 36.2335C11.7654 35.9393 12.0657 35.6697 12.2909 35.1866C12.6759 34.3641 12.6991 33.944 12.6677 28.3194C12.6432 23.6227 12.624 23.026 12.4957 22.6428C12.3223 22.131 11.9947 21.6342 11.8527 21.6657C11.7968 21.678 11.7708 21.6548 11.7968 21.6137C11.8691 21.4974 11.5715 21.273 11.08 21.0732C10.6555 20.8994 10.4794 20.8884 7.76133 20.861C6.18183 20.846 4.89039 20.8638 4.88902 20.9021ZM19.4731 24.5232C18.8587 24.853 18.886 24.5177 18.886 31.5368C18.886 37.2968 18.8983 37.8415 19.0294 38.0878C19.1072 38.2356 19.1632 38.3889 19.1523 38.4258C19.1427 38.4642 19.1673 38.4751 19.2096 38.4491C19.2505 38.4231 19.4048 38.4614 19.5522 38.5353C20.0533 38.7857 20.7386 38.4696 20.8997 37.9113C20.9611 37.6978 20.9788 35.645 20.9543 31.3438C20.9352 27.902 20.9065 25.0227 20.8901 24.946C20.8751 24.868 20.8341 24.8215 20.8 24.8434C20.7331 24.8844 20.5461 24.5847 20.6034 24.5273C20.6225 24.5081 20.5734 24.4903 20.4956 24.4876C20.4164 24.4848 20.2212 24.4561 20.0601 24.4246C19.8458 24.3822 19.686 24.4082 19.4731 24.5232ZM28.7439 24.4588C27.5589 24.5943 26.5569 25.0062 26.0177 25.581C25.9085 25.6987 25.7842 25.774 25.7446 25.7493C25.7037 25.7247 25.6791 25.7343 25.6887 25.7726C25.6996 25.8109 25.5917 26.0696 25.4498 26.346C24.9993 27.2301 24.9201 28.0197 24.9201 31.6722C24.9201 34.3381 24.9433 34.9881 25.0593 35.526C25.1344 35.8818 25.1999 36.2362 25.2027 36.3142C25.2054 36.3922 25.2313 36.4401 25.26 36.4223C25.2887 36.4045 25.3733 36.5209 25.4498 36.6824C25.5262 36.8425 25.7392 37.1367 25.9235 37.3365C26.1078 37.5377 26.2306 37.7293 26.1965 37.7635C26.1637 37.7977 26.1733 37.8155 26.2197 37.8045C26.2648 37.7936 26.5951 37.9263 26.9501 38.1001C27.847 38.538 28.6784 38.6503 31.0292 38.6503L32.9063 38.6516L32.8489 39.8272C32.7902 41.0096 32.6674 41.5693 32.4025 41.8622C32.3261 41.947 32.2141 41.9976 32.1554 41.9744C32.0954 41.9511 32.0544 41.9771 32.0653 42.0305C32.0763 42.0852 31.8783 42.1988 31.6244 42.2864C31.2244 42.4219 30.7998 42.4492 28.3985 42.4889C25.9016 42.53 25.6081 42.5491 25.3747 42.6901C24.6484 43.1294 24.8286 44.2871 25.6627 44.5362C25.8852 44.6033 26.8695 44.6211 28.9487 44.5951C31.7336 44.5595 31.9493 44.5458 32.4162 44.3747C32.6906 44.2748 33.0032 44.1339 33.1097 44.0641C33.2175 43.9929 33.3486 43.9614 33.4005 43.9943C33.4537 44.0271 33.4715 44.0148 33.4401 43.9642C33.3868 43.8766 33.7895 43.5523 33.9083 43.5878C33.9424 43.5988 33.9616 43.5591 33.9506 43.5016C33.9383 43.4441 33.9861 43.4086 34.0558 43.425C34.124 43.44 34.154 43.4264 34.1226 43.3949C34.0912 43.362 34.154 43.1937 34.2646 43.0199C34.5568 42.5533 34.7056 42.1605 34.8489 41.4639C35.0305 40.5853 35.0428 25.6152 34.8626 25.1883C34.7069 24.8188 34.4967 24.6504 34.0544 24.5396C33.5738 24.4192 29.6162 24.3589 28.7439 24.4588ZM40.0283 24.4931C39.8795 24.5601 39.6816 24.7394 39.5888 24.8927C39.4222 25.165 39.4195 25.3018 39.4195 31.5203L39.4181 37.8702L39.6106 38.1562C39.7321 38.3369 39.9273 38.4847 40.1471 38.5627C40.4638 38.6722 40.5253 38.6694 40.8488 38.523C41.1123 38.4039 41.242 38.2753 41.3566 38.0235C41.5014 37.706 41.5109 37.3132 41.5123 31.4697C41.5136 25.4551 41.5082 25.2457 41.3498 24.9857C41.0427 24.4807 40.5034 24.2809 40.0283 24.4931ZM55.112 24.4479C55.1189 24.4753 55.0042 24.6258 54.8568 24.7804C54.6247 25.024 54.5878 25.1226 54.5878 25.4989C54.5878 25.8889 54.6192 25.9656 54.8854 26.2242L55.183 26.5143L58.0485 26.5609C60.8526 26.6047 61.4723 26.6676 61.3345 26.8907C61.3058 26.9372 61.3358 26.9536 61.4027 26.929C61.5775 26.8606 61.9379 27.3368 62.0935 27.8404C62.1699 28.0868 62.2491 28.7245 62.2751 29.2993L62.3201 30.3188L60.0676 30.3598C57.3359 30.4105 56.9072 30.494 55.9352 31.1782C54.5605 32.1444 53.9244 34.0726 54.4595 35.6505C54.5346 35.8722 54.7353 36.2882 54.9045 36.5756C55.0738 36.8616 55.2035 37.1257 55.1926 37.16C55.183 37.1955 55.2062 37.2133 55.2458 37.2024C55.3509 37.1709 56.0881 37.873 56.0253 37.9441C55.9953 37.9783 56.0144 37.9811 56.069 37.9496C56.1223 37.9181 56.2929 37.966 56.4458 38.0536C57.2007 38.4888 58.4867 38.6503 61.1665 38.6503C63.1638 38.6503 63.7071 38.5914 63.9802 38.3492C64.0539 38.2835 64.144 38.2589 64.1822 38.2945C64.2204 38.3287 64.2259 38.3109 64.1931 38.2548C64.1617 38.1987 64.1931 38.0399 64.2641 37.9017C64.3761 37.6855 64.3924 37.0081 64.3924 32.8314C64.3924 28.2852 64.3829 27.9732 64.2259 27.3532C63.9406 26.2393 63.3522 25.4414 62.4675 24.9679C61.5665 24.4862 61.1474 24.4356 57.9652 24.4151C56.3885 24.4055 55.1052 24.4192 55.112 24.4479ZM28.8586 26.6375C27.8415 26.7703 27.2982 27.3464 27.0961 28.511C26.9473 29.369 27.0293 34.5365 27.2013 35.0538C27.3951 35.6423 27.6381 35.9269 28.1692 36.1897L28.6497 36.4251L30.7657 36.4552L32.8817 36.4839V26.5568L31.1015 26.5677C30.1214 26.5732 29.1125 26.6047 28.8586 26.6375ZM58.1072 32.6411C57.0301 32.945 56.54 33.4814 56.5209 34.3778C56.51 34.9156 56.9113 35.7873 57.112 35.6628C57.1516 35.6382 57.1584 35.6833 57.1284 35.7641C57.0847 35.8763 57.1052 35.8955 57.2171 35.853C57.2963 35.8229 57.3414 35.8311 57.3154 35.8722C57.2895 35.9146 57.4478 36.0364 57.6676 36.1445C58.0485 36.332 58.1605 36.343 60.1823 36.3676L62.2983 36.3936V32.5194L60.3911 32.5276C59.1284 32.5317 58.357 32.57 58.1072 32.6411Z"
    fill="black"
  />
</svg>
